<svg xmlns="http://www.w3.org/2000/svg" width="1470" height="1470"><path fill="#231f20" d="M12092.346 7308.512h-4938.97V4154.411h4938.97z"/><path fill="#6e4e37" d="M3347.279-78.163h-380.355v-380.355h380.355z"/><g fill="#231f20"><path d="M2968.004 17.63h-6.498V7.117h8.6l2.867-14.094h-11.467v-10.56h13.617l3.774-18.632h10.702l-3.774 18.633h10.559l3.679-18.633h11.084l-3.822 18.633h6.593v10.559h-8.743l-2.867 14.094h11.61V17.63h-13.76l-3.774 18.634h-10.655l3.68-18.634h-10.607l-3.775 18.634h-10.798zm15.719-24.606-2.82 14.094h10.607l2.771-14.094zM3064.706-17.822l-12.996 1.434q-.479-4.012-2.484-5.925c-1.338-1.27-3.071-1.911-5.208-1.911q-4.246.001-7.194 3.822-2.93 3.83-3.699 15.91c3.344-3.945 7.501-5.924 12.47-5.924 5.603 0 10.409 2.136 14.408 6.402q5.991 6.408 5.993 16.531c0 7.167-2.102 12.92-6.307 17.248q-6.306 6.5-16.196 6.498-10.608.002-17.44-8.239-6.83-8.242-6.832-27.022c0-12.831 2.376-22.086 7.12-27.758 4.743-5.665 10.907-8.505 18.49-8.505 5.316 0 9.726 1.489 13.207 4.471 3.494 2.976 5.712 7.303 6.668 12.968m-30.435 29.288c0 4.368 1.004 7.733 3.01 10.109q3.01 3.553 6.88 3.555c2.485 0 4.553-.968 6.212-2.914q2.485-2.91 2.484-9.555-.002-6.83-2.675-10.007-2.675-3.181-6.69-3.18-3.871-.002-6.545 3.037c-1.781 2.02-2.676 5.01-2.676 8.955M3076.698 35.068v-70.042h48.017v11.849h-33.875v16.58h29.24V5.302h-29.24v29.765zM3159.736 35.068V20.974h-28.667V9.22l30.387-44.482h11.275V9.173h8.696v11.8h-8.696v14.095zm0-25.895v-23.937l-16.101 23.937zM3190.792 35.068v-70.042h51.934v11.849h-37.792v15.528h35.164V4.204h-35.164v19.063h39.13v11.801zM3252.616 16.483l12.995-1.577q.624 4.976 3.345 7.597c1.815 1.754 4.013 2.627 6.593 2.627 2.771 0 5.106-1.05 6.996-3.153q2.847-3.152 2.846-8.504 0-5.058-2.723-8.027c-1.815-1.972-4.027-2.962-6.641-2.962q-2.58 0-6.163 1.003l1.48-10.941q5.448.145 8.314-2.361 2.867-2.511 2.867-6.669-.002-3.53-2.103-5.638-2.098-2.1-5.59-2.102c-2.293 0-4.252.799-5.876 2.389-1.625 1.597-2.614 3.918-2.962 6.976l-12.375-2.103c.86-4.231 2.157-7.617 3.89-10.15q2.613-3.8 7.263-5.971c3.112-1.454 6.586-2.178 10.443-2.178q9.891 0 15.862 6.307c3.283 3.44 4.921 7.33 4.921 11.658q.002 9.227-10.081 14.715c4.013.86 7.221 2.792 9.624 5.781 2.41 2.997 3.61 6.614 3.61 10.846q0 9.226-6.736 15.72-6.737 6.498-16.77 6.497-9.512 0-15.767-5.467c-4.17-3.652-6.593-8.416-7.262-14.313M3307.512-21.548v-12.47h45.915v9.746c-3.788 3.727-7.645 9.078-11.562 16.054a93.3 93.3 0 0 0-8.955 22.243c-2.062 7.85-3.072 14.867-3.038 21.043h-12.947q.34-14.518 5.992-29.622c3.781-10.06 8.819-19.063 15.125-26.994z"/></g><g fill="#231f20"><path d="m3523.874-430.429 13.712 4.348q-3.153 11.466-10.487 17.036-7.333 5.561-18.61 5.563c-9.3 0-16.944-3.174-22.933-9.535q-8.983-9.523-8.982-26.06c0-11.657 3.01-20.708 9.03-27.165 6.02-6.443 13.934-9.671 23.746-9.671q12.852 0 20.879 7.597 4.775 4.494 7.166 12.9l-13.999 3.344q-1.243-5.447-5.184-8.6-3.943-3.153-9.58-3.153c-5.19 0-9.405 1.863-12.636 5.59q-4.849 5.588-4.85 18.107.001 13.28 4.778 18.92 4.778 5.64 12.422 5.638 5.638 0 9.7-3.583 4.06-3.585 5.828-11.276M3619.696-404.676v-14.095h-28.667v-11.753l30.387-44.481h11.275v44.433h8.696v11.801h-8.696v14.095zm0-25.896v-23.937l-16.102 23.937zM3670.483-475.005q10.177.001 15.91 7.262 6.833 8.6 6.833 28.523c0 13.248-2.294 22.777-6.88 28.571q-5.687 7.167-15.863 7.167-10.223-.002-16.483-7.856-6.26-7.865-6.259-28.025 0-19.781 6.88-28.476 5.687-7.166 15.862-7.166m0 11.132q-2.437.002-4.348 1.55c-1.272 1.037-2.262 2.893-2.962 5.569q-1.385 5.21-1.385 17.534 0 12.327 1.242 16.934c.83 3.078 1.87 5.126 3.13 6.143a6.7 6.7 0 0 0 4.323 1.529q2.438 0 4.348-1.556 1.912-1.548 2.962-5.563 1.387-5.16 1.386-17.487 0-12.326-1.242-16.933c-.83-3.079-1.87-5.133-3.13-6.17q-1.888-1.548-4.324-1.55M3478.867-292.85v-70.042h21.166l12.709 47.778 12.565-47.778h21.214v70.043h-13.14v-55.136l-13.903 55.136h-13.616l-13.856-55.136v55.136zM3638.854-345.74l-12.995 1.434q-.477-4.011-2.484-5.924t-5.208-1.912c-2.836 0-5.232 1.277-7.19 3.823q-2.94 3.819-3.704 15.91 5.017-5.926 12.47-5.925c5.607 0 10.41 2.137 14.405 6.402 3.997 4.266 5.997 9.782 5.997 16.532q0 10.747-6.307 17.248c-4.205 4.334-9.603 6.497-16.197 6.497-7.07 0-12.883-2.75-17.439-8.238-4.556-5.502-6.832-14.504-6.832-27.022 0-12.838 2.372-22.086 7.119-27.759 4.747-5.672 10.91-8.504 18.49-8.504q7.98 0 13.21 4.464c3.488 2.983 5.71 7.303 6.665 12.975m-30.434 29.289c0 4.361 1.003 7.733 3.01 10.101q3.01 3.563 6.88 3.563 3.727.001 6.211-2.915c1.655-1.945 2.485-5.125 2.485-9.555q0-6.829-2.676-10.013-2.676-3.174-6.689-3.174c-2.58 0-4.76 1.01-6.546 3.038q-2.676 3.029-2.675 8.955M3670.483-363.178q10.177.002 15.91 7.262 6.833 8.6 6.833 28.523c0 13.248-2.294 22.777-6.88 28.572q-5.687 7.167-15.863 7.166-10.223-.001-16.483-7.856-6.26-7.865-6.259-28.025 0-19.781 6.88-28.475 5.687-7.167 15.862-7.167m0 11.132q-2.437.002-4.348 1.55c-1.272 1.037-2.262 2.893-2.962 5.569q-1.385 5.21-1.385 17.534 0 12.327 1.242 16.934c.83 3.079 1.87 5.126 3.13 6.143a6.7 6.7 0 0 0 4.323 1.529q2.438 0 4.348-1.556c1.273-1.03 2.263-2.887 2.962-5.563q1.387-5.16 1.386-17.487 0-12.326-1.242-16.933c-.83-3.079-1.87-5.133-3.13-6.17q-1.888-1.548-4.324-1.55M3497.453-181.022v-29.479l-25.657-40.563h16.579l16.483 27.711 16.15-27.711h16.292l-25.753 40.659v29.383zM3593.37-237.639v-12.47h45.914v9.747q-5.686 5.59-11.562 16.053-5.877 10.464-8.958 22.238-3.081 11.784-3.034 21.049h-12.948c.222-9.685 2.222-19.555 5.996-29.622q5.663-15.1 15.122-26.995zM3647.98-199.034l13.378-1.386q.573 4.535 3.392 7.194c1.88 1.761 4.044 2.648 6.498 2.648q4.205-.002 7.119-3.412 2.913-3.42 2.914-10.3c0-4.3-.962-7.528-2.89-9.671-1.929-2.157-4.437-3.229-7.525-3.229-3.853 0-7.31 1.707-10.368 5.112l-10.894-1.576 6.88-36.455h35.5v12.566h-25.323l-2.102 11.897q4.489-2.244 9.173-2.246c5.956 0 11.006 2.163 15.146 6.498 4.14 4.334 6.21 9.951 6.21 16.865 0 5.768-1.671 10.907-5.016 15.432-4.556 6.178-10.876 9.27-18.968 9.27q-9.699.001-15.814-5.208c-4.078-3.474-6.515-8.136-7.31-14M3479.25-69.195v-70.042h14.142v31.103l28.57-31.103h19.016l-26.373 27.28 27.807 42.762h-18.3l-19.254-32.87-11.466 11.705v21.165zM3592.892-87.78l12.996-1.577q.62 4.965 3.344 7.597c1.816 1.754 4.014 2.627 6.594 2.627q4.156 0 7-3.153 2.84-3.151 2.842-8.505 0-5.068-2.723-8.026-2.724-2.96-6.642-2.962-2.58 0-6.163 1.003l1.481-10.941c3.631.095 6.402-.696 8.314-2.362 1.91-1.679 2.866-3.897 2.866-6.668 0-2.355-.7-4.239-2.102-5.638q-2.104-2.101-5.59-2.102c-2.293 0-4.252.799-5.877 2.389s-2.61 3.918-2.962 6.975l-12.374-2.102c.86-4.238 2.156-7.624 3.894-10.149 1.737-2.54 4.156-4.525 7.262-5.979q4.658-2.17 10.44-2.17 9.888 0 15.861 6.306 4.92 5.159 4.921 11.658c0 6.15-3.361 11.05-10.08 14.715q6.018 1.288 9.627 5.781c2.406 2.997 3.607 6.607 3.607 10.846 0 6.15-2.246 11.384-6.737 15.719q-6.736 6.5-16.77 6.498-9.506 0-15.766-5.468-6.26-5.477-7.263-14.312M3648.076-85.392l12.995-1.433q.477 3.962 2.484 5.877 2.007 1.912 5.304 1.91c2.77 0 5.13-1.275 7.07-3.821q2.914-3.82 3.728-15.863-5.064 5.877-12.661 5.877c-5.512 0-10.266-2.122-14.262-6.382q-5.995-6.369-5.996-16.599 0-10.66 6.33-17.173c4.222-4.354 9.597-6.525 16.125-6.525 7.102 0 12.931 2.744 17.487 8.245 4.556 5.488 6.832 14.531 6.832 27.111q0 19.205-7.119 27.711t-18.538 8.504c-5.477 0-9.907-1.46-13.282-4.368q-5.064-4.38-6.497-13.07m30.386-29.335q0-6.5-2.986-10.081-2.986-3.584-6.904-3.584c-2.484 0-4.545.976-6.187 2.942-1.642 1.952-2.46 5.167-2.46 9.624 0 4.525.89 7.843 2.675 9.965q2.676 3.174 6.689 3.174 3.87.002 6.522-3.058c1.767-2.04 2.651-5.03 2.651-8.982"/></g><path fill="#d5ae5c" d="M5082.681-78.163h-380.354v-380.355h380.354z"/><g fill="#231f20"><path d="M4708.22-34.974h25.847c5.829 0 10.272.45 13.33 1.338q6.164 1.823 10.56 6.45 4.392 4.636 6.688 11.35c1.528 4.471 2.293 9.993 2.293 16.552q0 8.65-2.15 14.907c-1.754 5.098-4.252 9.22-7.501 12.374-2.45 2.389-5.767 4.253-9.938 5.59-3.119.99-7.296 1.481-12.517 1.481h-26.613zm14.141 11.849v46.392h10.56c3.951 0 6.797-.218 8.551-.668 2.294-.574 4.198-1.543 5.706-2.915 1.516-1.365 2.751-3.624 3.707-6.757.955-3.14 1.433-7.412 1.433-12.832q0-8.119-1.433-12.47c-.956-2.894-2.294-5.16-4.013-6.785-1.72-1.624-3.905-2.723-6.546-3.296q-2.96-.667-11.61-.669zM4821.452-17.822l-12.995 1.434q-.48-4.012-2.484-5.925c-1.338-1.27-3.072-1.911-5.208-1.911q-4.248.001-7.194 3.822-2.93 3.83-3.7 15.91c3.345-3.945 7.502-5.924 12.47-5.924q8.408.002 14.409 6.402 5.991 6.408 5.993 16.531c0 7.167-2.103 12.92-6.307 17.248q-6.307 6.5-16.197 6.498-10.608.002-17.439-8.239c-4.552-5.494-6.832-14.503-6.832-27.022q.002-19.248 7.119-27.758c4.744-5.665 10.907-8.505 18.49-8.505 5.317 0 9.726 1.489 13.207 4.471 3.494 2.976 5.713 7.303 6.668 12.968m-30.434 29.288c0 4.368 1.003 7.733 3.01 10.109q3.01 3.553 6.88 3.555c2.485 0 4.552-.968 6.211-2.914q2.487-2.91 2.485-9.555c0-4.553-.895-7.89-2.676-10.007q-2.674-3.181-6.689-3.18-3.871-.002-6.546 3.037c-1.78 2.02-2.675 5.01-2.675 8.955M4896.511 35.068h-15.384l-6.116-15.91h-27.997l-5.782 15.91h-15.002l27.281-70.042h14.955zm-26.038-27.711-9.652-25.99-9.46 25.99zM4904.108 35.068v-70.042h48.017v11.849h-33.875v16.58h29.24V5.302h-29.24v29.765zM4961.011 17.056l13.378-1.386q.575 4.545 3.392 7.194c1.877 1.768 4.048 2.649 6.498 2.649 2.805 0 5.174-1.14 7.119-3.413q2.916-3.42 2.914-10.3.002-6.448-2.894-9.671c-1.924-2.15-4.43-3.229-7.522-3.229-3.855 0-7.31 1.707-10.367 5.113l-10.893-1.577 6.88-36.455h35.499v12.566h-25.323l-2.102 11.897q4.494-2.244 9.174-2.246c5.958 0 11.002 2.17 15.145 6.498q6.213 6.502 6.211 16.866 0 8.652-5.016 15.432c-4.553 6.184-10.88 9.269-18.968 9.269-6.464 0-11.74-1.734-15.815-5.208q-6.111-5.203-7.31-13.999M5018.153-34.974h25.848c5.83 0 10.272.45 13.33 1.338q6.164 1.823 10.56 6.45 4.392 4.636 6.688 11.35c1.529 4.471 2.294 9.993 2.294 16.552q0 8.65-2.15 14.907c-1.755 5.098-4.253 9.22-7.502 12.374-2.45 2.389-5.767 4.253-9.938 5.59-3.119.99-7.296 1.481-12.517 1.481h-26.613zm14.142 11.849v46.392h10.56c3.952 0 6.798-.218 8.552-.668 2.293-.574 4.197-1.543 5.706-2.915 1.515-1.365 2.75-3.624 3.706-6.757.955-3.14 1.433-7.412 1.433-12.832q0-8.119-1.433-12.47c-.956-2.894-2.293-5.16-4.013-6.785s-3.905-2.723-6.546-3.296q-2.959-.667-11.61-.669z"/></g><g fill="#231f20"><path d="m5254.312-430.429 13.712 4.348q-3.152 11.466-10.49 17.036-7.333 5.561-18.606 5.563c-9.303 0-16.948-3.174-22.934-9.535-5.993-6.348-8.982-15.036-8.982-26.06 0-11.657 3.01-20.708 9.03-27.165 6.02-6.443 13.93-9.671 23.746-9.671q12.85 0 20.879 7.597 4.77 4.494 7.166 12.9l-13.999 3.344q-1.248-5.447-5.187-8.6-3.944-3.153-9.576-3.153-7.79 0-12.64 5.59-4.846 5.588-4.847 18.107-.002 13.28 4.778 18.92c3.18 3.761 7.324 5.638 12.422 5.638 3.754 0 6.99-1.194 9.699-3.583q4.056-3.585 5.829-11.276M5358.16-404.676h-13.425v-50.597q-7.362 6.88-17.343 10.176v-12.183c3.501-1.147 7.31-3.324 11.418-6.518 4.11-3.208 6.928-6.941 8.457-11.207h10.893zM5378.227-461.293v-12.47h45.915v9.747c-3.796 3.726-7.645 9.078-11.563 16.053a93.7 93.7 0 0 0-8.962 22.237q-3.081 11.783-3.03 21.05h-12.948c.218-9.686 2.218-19.555 5.993-29.622q5.663-15.1 15.125-26.995zM5209.305-292.85v-70.042h21.166l12.709 47.778 12.565-47.778h21.213v70.043h-13.138v-55.136l-13.903 55.136H5236.3l-13.856-55.136v55.136zM5323.33-311.435l12.996-1.577c.41 3.31 1.529 5.843 3.344 7.597q2.724 2.63 6.594 2.628c2.77 0 5.105-1.051 6.996-3.153q2.846-3.151 2.846-8.505 0-5.067-2.723-8.027c-1.816-1.972-4.034-2.962-6.641-2.962q-2.58 0-6.164 1.003l1.481-10.94c3.631.095 6.402-.696 8.314-2.362 1.91-1.68 2.866-3.897 2.866-6.668 0-2.355-.703-4.24-2.102-5.638q-2.11-2.101-5.59-2.103c-2.294 0-4.252.8-5.877 2.39s-2.614 3.917-2.962 6.975l-12.374-2.102q1.29-6.36 3.89-10.15c1.74-2.539 4.157-4.525 7.262-5.978q4.659-2.171 10.443-2.171c6.593 0 11.877 2.102 15.863 6.306 3.275 3.44 4.92 7.324 4.92 11.658 0 6.15-3.364 11.05-10.08 14.716q6.019 1.289 9.623 5.78c2.41 2.997 3.611 6.608 3.611 10.846 0 6.15-2.245 11.385-6.737 15.72-4.49 4.334-10.081 6.497-16.77 6.497q-9.51 0-15.766-5.467c-4.177-3.651-6.593-8.422-7.263-14.313M5400.921-363.178q10.177.002 15.91 7.262 6.831 8.6 6.833 28.523c0 13.248-2.294 22.777-6.88 28.572-3.795 4.778-9.078 7.166-15.863 7.166q-10.227-.001-16.483-7.856c-4.177-5.242-6.259-14.586-6.259-28.025q0-19.781 6.88-28.475 5.685-7.167 15.862-7.167m0 11.132c-1.624 0-3.078.519-4.347 1.55q-1.916 1.555-2.963 5.569c-.928 3.474-1.385 9.317-1.385 17.534 0 8.218.41 13.863 1.242 16.934q1.24 4.618 3.126 6.143 1.893 1.527 4.327 1.529 2.436 0 4.348-1.556c1.27-1.03 2.26-2.887 2.962-5.563q1.385-5.16 1.386-17.487-.002-12.326-1.242-16.933c-.833-3.079-1.87-5.133-3.133-6.17q-1.884-1.548-4.32-1.55M5227.89-181.022v-29.479l-25.656-40.563h16.579l16.483 27.711 16.15-27.711h16.292l-25.753 40.659v29.383zM5323.808-237.639v-12.47h45.915v9.747c-3.795 3.727-7.645 9.078-11.563 16.053a93.6 93.6 0 0 0-8.961 22.238q-3.082 11.784-3.031 21.049h-12.947c.217-9.685 2.217-19.555 5.992-29.622q5.663-15.1 15.125-26.995zM5378.418-199.034l13.378-1.386c.382 3.024 1.508 5.42 3.392 7.194 1.877 1.761 4.04 2.648 6.498 2.648q4.198-.002 7.119-3.412c1.938-2.28 2.914-5.713 2.914-10.3 0-4.3-.962-7.528-2.894-9.671-1.925-2.157-4.436-3.229-7.521-3.229-3.857 0-7.31 1.707-10.368 5.112l-10.894-1.576 6.88-36.455h35.5v12.566h-25.323l-2.102 11.897q4.484-2.244 9.173-2.246c5.952 0 11.003 2.163 15.146 6.498 4.136 4.334 6.21 9.951 6.21 16.865 0 5.768-1.672 10.907-5.016 15.432-4.56 6.178-10.88 9.27-18.968 9.27q-9.704.001-15.814-5.208c-4.082-3.474-6.518-8.136-7.31-14M5209.688-69.195v-70.042h14.142v31.103l28.57-31.103h19.017l-26.374 27.28 27.807 42.762h-18.3l-19.254-32.87-11.466 11.705v21.165zM5346.502-139.524q10.177.002 15.91 7.262 6.831 8.6 6.833 28.524c0 13.248-2.293 22.776-6.88 28.571-3.795 4.778-9.078 7.167-15.863 7.167-6.818 0-12.313-2.622-16.483-7.856-4.177-5.242-6.259-14.586-6.259-28.025q0-19.782 6.88-28.476 5.685-7.167 15.862-7.167m0 11.132c-1.624 0-3.078.519-4.347 1.55q-1.916 1.556-2.963 5.57c-.928 3.474-1.385 9.316-1.385 17.534s.41 13.863 1.242 16.934q1.24 4.618 3.126 6.142c1.263 1.017 2.703 1.53 4.327 1.53q2.436 0 4.348-1.557c1.27-1.03 2.26-2.887 2.962-5.562q1.385-5.16 1.386-17.487-.002-12.327-1.242-16.934c-.832-3.078-1.87-5.133-3.133-6.17q-1.884-1.548-4.32-1.55"/></g><path fill="#d5ae5c" d="M6042.526-2403.809c-.245-1.095 105.546 33.138 160.096 92.942 56.978 59.218 103.75 218.79 102.252 217.857-.295-2.548-135.935-64.783-194.238-134.009-58.032-72.103-83.615-151.78-83.44-152.005-.267-.302 70.854 24.228 132.048 82.255 61.45 57.767 95.753 131.845 95.633 131.54.637.324-43.214-100.202-90.686-143.922-45.953-43.971-121.483-95.011-121.665-94.658M6198.265-2372.58c-.634-.75 95.036-12.303 172.833 29.92 79.714 38.265 220.27 209.558 218.13 210.644-1.076-2.773-145.414-31.934-231.867-83.687-87.294-55.732-154.058-124.704-154.406-125.234-.126.215 58.401 13.141 137.403 54.682 88.204 45.3 180.928 104.526 180.914 104.886-.009.53-70.626-57.154-176.266-114.434-59.228-33.155-146.605-77.267-146.74-76.776M5792.087-2450.06c-.354-1.011 105.71 12.057 165.852 62.46 62.532 49.38 128.526 206.266 126.93 205.65-.526-2.364-137.411-36.501-202.845-96.927-65.43-63.22-101.274-141.604-101.12-141.854-.295-.243 71.318 10.376 137.698 57.727 66.613 47.052 109.237 116.991 109.09 116.72.668.195-54.737-95.461-106.104-130.855-49.87-35.918-129.35-73.297-129.501-72.92M5544.617-2446.95c-.454-.93 103.807-8.505 168.654 31.795 67.124 38.84 152.16 189.586 150.499 189.296-.747-2.178-136.285-9.134-207.99-59.591-71.963-53.171-117.905-128.266-117.77-128.543-.319-.184 70.429-3.248 140.961 32.802 70.732 35.71 121.324 100.128 121.149 99.891.687.062-65.838-88.745-120.289-115.345-53.014-27.406-135.105-50.704-135.214-50.304M5297.902-2393.52c-.549-.844 99.702-29.154 168.323-.007 70.738 27.222 174.718 167.972 173.038 168.018-.962-1.988-132.403 18.11-209.49-20.829-77.618-41.565-133.516-111.162-133.415-111.463-.338-.122 68.076-17.048 141.697 6.687 73.79 23.342 131.992 80.61 131.797 80.41.686-.075-76.554-79.728-133.252-96.762-55.348-18.138-138.633-26.48-138.698-26.055M5071.473-2294.284c-.633-.757 93.612-48.674 164.758-31.088 73.043 15.204 194.309 142.612 192.645 142.995-1.151-1.8-126 43.626-207.078 17.1-81.88-29.07-146.782-91.23-146.714-91.56-.348-.059 64.381-30.208 139.73-19.101 75.474 10.674 140.32 59.542 140.102 59.377.676-.214-85.985-68.896-143.875-76.148-56.671-8.638-139.552-2.03-139.568-1.575M4862.801-2149.717c-.71-.669 85.453-67.681 157.879-62.402 74.038 2.432 211.067 112.863 209.455 113.584-1.335-1.61-116.99 68.23-200.683 55.357-84.754-15.332-157.771-67.966-157.74-68.323-.349.003 59.279-43.145 134.993-45.34 75.79-2.668 146.344 36.34 146.107 36.213.646-.353-94.2-55.984-152.223-52.948-56.966 1.353-137.814 23.38-137.788 23.86M6043.996-2421.438c.296-.673 104.836 29.76 174.372 26.181 67.598-8.255 193.714-73.057 195.022-71.058 1.064-2.412-174.25-99.729-259.823-74.483-85.016 21.523-120.599 87.69-120.722 87.125.238.08 72.886 14.648 149.767 11.866 76.679-3.534 144.742-24.377 144.871-24.39-.555-.816-87.31 35.38-144.064 39.042-58.039 1.123-139.59 5.194-139.423 5.717M5791.006-2468.907c.23-.714 104.549 8.715 170.192-11.069 63.253-23.888 174.007-122.52 175.508-120.863.836-2.466-179.207-62.79-257.665-17.572-78.27 41.58-103.093 118.534-103.271 118.015.24.03 71.938-.137 144.861-20.431 72.649-20.977 134.409-59.144 134.539-59.184-.634-.67-78.099 57.868-131.722 74.413-55.161 14.354-132.658 36.217-132.442 36.69M5540.876-2466.487c.163-.75 102.208-11.738 162.41-46.368 57.418-38.165 149.538-166.23 151.198-164.923.59-2.529-180.57-26.616-249.984 36.656-69.573 59.718-82.627 145.14-82.857 144.669.249-.026 69.547-14.398 136.825-50.844 66.932-37.06 120.73-90.62 120.851-90.684-.698-.527-66.707 77.68-115.974 106.088-51.009 26.569-122.731 64.976-122.469 65.406M5291.368-2413.213c.076-.787 97.659-32.184 150.753-80.678 49.962-51.421 119.933-205.163 121.723-204.227.325-2.589-178.237 9.866-236.475 89.7-58.767 76.362-58.88 168.062-59.16 167.636.242-.081 65.595-28.536 125.404-80.185 59.405-52.193 103.444-119.558 103.559-119.656-.746-.375-52.995 95.266-96.553 134.812-45.487 38.079-109.555 92.218-109.25 92.598M5062.235-2313.573c-.005-.827 91.17-51.43 136.03-111.963 41.443-62.868 87.522-236.963 89.39-236.383.058-2.656-172.342 44.508-218.112 138.407-46.66 90.515-33.675 185.889-33.994 185.51.228-.134 60.319-41.72 111.402-106.71 50.627-65.463 83.88-144.227 83.983-144.349-.776-.224-38.012 109.544-74.953 158.842-39.005 48.192-94.088 116.317-93.746 116.646M4850.928-2168.053c-.101-.869 82.645-70.077 118.064-141.246 31.778-72.901 52.037-262.773 53.95-262.556-.224-2.72-162.853 78.392-194.746 184.359-33.133 102.676-6.752 199.303-7.11 198.972.21-.193 53.65-54.375 94.656-131.295 40.504-77.33 61.867-165.471 61.958-165.623-.795-.073-21.656 121.038-50.993 179.032-31.498 57.256-76.157 138.077-75.779 138.357"/><g fill="#6e4e37"><path d="M2158.499-1738.708c-18.501-11.624-33.11-20.81-36.868-24.564-5.515-5.516-7.286-12.348-4.99-19.242 4.71-14.122 24.227-24.933 52.208-28.932 72.793-10.362 178.167 64.24 179.221 64.998a5.26 5.26 0 0 0 5.447.395 5.24 5.24 0 0 0 2.846-4.66v-130.864c0-1.461-.607-2.854-1.679-3.843-92.28-85.488-296.126-69.49-380.915 4.818-27.431 24.046-42.1 53.075-43.604 86.28-2.399 53.007 29.776 101.63 49.164 121.998 27.124 28.503 60.558 47.416 92.89 65.694 37.894 21.432 73.69 41.676 96.466 75.318 10.474 15.48 12.474 30.216 5.481 40.44-10.303 15.064-38.604 19.01-75.738 10.553-82.236-18.736-144.637-73.994-145.258-74.554a5.23 5.23 0 0 0-5.634-.88 5.23 5.23 0 0 0-3.106 4.784v152.506c0 1.475.621 2.881 1.71 3.877 27.643 25.2 119.042 60.828 219.89 60.828 21.719 0 43.88-1.651 65.93-5.419 54.115-9.235 95.477-35.076 119.608-74.718 24.268-39.867 29.155-91.126 13.402-140.637-21.64-68.015-141.876-143.578-206.471-184.176M2781.47-1979.63c-.462-2.615-2.816-4.574-5.448-4.328-94.49 5.126-206.952-1.229-208.082-1.297a5.26 5.26 0 0 0-4.969 2.853c-33.58 65.872-172.098 611.678-177.979 634.878a5.25 5.25 0 0 0 .99 4.566c1.027 1.283 2.621 1.938 4.242 1.966 44.679-1.297 178.505 2.553 179.856 2.593h.153a5.24 5.24 0 0 0 5.195-4.573l9.872-76.512c61.436-10.218 127.298-3.024 142.788-1.073l21.124 78.282a5.25 5.25 0 0 0 6.518 3.672c47.86-13.856 202.803-6.362 204.363-6.287 1.823.13 3.7-.853 4.706-2.464a5.24 5.24 0 0 0 .14-5.31c-105.917-191.411-182.709-622.633-183.47-626.967m-72.664 423.29-88.914-1.127c7.45-26.66 34.772-125.505 46.825-183.835zM3498.135-1812.013c0-114.188-133.419-163.59-201.478-163.59H2996.09c-1.689 0-3.272.811-4.259 2.183a5.26 5.26 0 0 0-.706 4.737c.58 1.72 57.34 176.757 5.952 622.803a5.25 5.25 0 0 0 1.368 4.171c1.041 1.112 2.478 1.747 4.055 1.665 1.453-.055 147.165-5.944 252.556 1.59 10.695.765 21.06 1.147 31.08 1.147 110.008 0 178.999-45.86 200.308-133.764 25.424-104.88-.059-158.54-47.375-204.543 16.906-10.477 59.066-45.69 59.066-136.399m-313.32 222.269c23.074-2.853 80.92-6.805 111.183 19.438 12.28 10.649 18.504 25.309 18.504 43.581 0 11.173-3.986 19.985-12.187 26.947-28.946 24.578-99.234 17.111-117.5 14.688zm102.7-148.916c-28.896 26.128-85.977 24.96-102.7 24.018v-116.052c16.112-2.593 74.374-9.972 103.28 13.678 11.108 9.091 16.51 21.514 16.51 37.984 0 16.531-5.75 30.12-17.09 40.372M3795.822-2002.769c-185.119 0-278.981 110.51-278.981 328.458 0 233.224 95.572 346.593 292.174 346.593 162.298 0 259.194-125.866 259.194-336.703 0-221.348-94.19-338.348-272.387-338.348m-3.297 157.25c47.662 0 73.912 56.699 73.912 159.66l.01 12.101c.082 72.711.16 141.395-29.253 170.84-10.955 10.968-25.568 16.299-44.67 16.299-76.106 0-82.156-84.205-82.156-194.292 0-111.526 12.292-164.608 82.157-164.608M4982.812-1498.038h-270.3c-136.76 0-205.949-24.278-259.924-92.225 32.059-12.047 159.857-71.427 159.857-251.81 0-86.374-38.433-152.614-111.151-191.547-53.388-28.59-111.431-34.85-129.287-34.85-24.325 0-267.917 3.474-270.374 3.508a5.251 5.251 0 0 0-5.167 5.35c.123 5.843 12.16 585.675 1.771 712.067a5.25 5.25 0 0 0 5.225 5.672q.262.001.522-.027c1.222-.117 122.796-12.095 179.327-1.809 1.53.272 3.18-.17 4.39-1.215a5.26 5.26 0 0 0 1.78-4.198l-10.265-212.147h31.179c10.58 28.633 86.941 217.642 256.436 217.642h415.98a5.244 5.244 0 0 0 5.242-5.242v-143.927a5.243 5.243 0 0 0-5.241-5.242m-565.15-331.748c0 22.018-7.398 39.607-21.998 52.282-33.97 29.473-97.548 25.486-114.953 23.78v-153.824c17.486-1.53 80.929-4.682 114.878 25.131 14.647 12.866 22.073 30.571 22.073 52.63"/><path d="M4806.205-1556.696c36.215 11.228 76.13 16.067 115.014 16.067 65.422 0 127.915-13.705 164.909-33.744a5.23 5.23 0 0 0 2.744-4.607v-138.666a5.24 5.24 0 0 0-7.215-4.852c-1.788.717-178.852 71.85-242.642 28.933-13.693-9.214-20.934-22.88-22.047-41.656h275.44c2.572 0 4.77-1.87 5.173-4.409.225-1.386 5.378-34.27 2.088-77.632-3.05-40.23-14.333-97.159-50.76-139.886-35.28-41.382-87.372-62.364-154.834-62.364-129.369 0-191.18 56.671-220.249 104.217-43.546 71.216-42.993 169.386 1.447 256.205 24.954 48.746 69.005 83.194 130.932 102.394m17.691-269.746c.73-33.833 9.337-66.739 57.886-66.739 12.13 0 21.432 3.816 28.448 11.664 14.266 15.952 14.56 44.025 14.06 55.075zM5450.835-1980.948c-.457-2.6-2.573-4.491-5.44-4.327-94.524 5.112-206.959-1.236-208.085-1.297-2.075-.075-4.027 1.003-4.969 2.852-33.588 65.872-172.102 611.679-177.98 634.878a5.22 5.22 0 0 0 .991 4.567c1.023 1.276 2.532 1.822 4.238 1.965 44.7-1.29 178.512 2.553 179.856 2.593h.15a5.25 5.25 0 0 0 5.201-4.572l9.87-76.52c61.442-10.217 127.3-3.023 142.794-1.064l21.124 78.28a5.23 5.23 0 0 0 2.485 3.201 5.22 5.22 0 0 0 4.034.471c47.846-13.849 202.803-6.361 204.359-6.286 1.89.178 3.7-.847 4.71-2.464a5.25 5.25 0 0 0 .136-5.31c-105.916-191.412-182.709-622.633-183.474-626.967m-72.663 423.29-88.907-1.126c7.446-26.66 34.768-125.498 46.822-183.835zM6334.663-2001.452c-185.119 0-278.981 110.51-278.981 328.459 0 233.223 95.568 346.593 292.174 346.593 162.301 0 259.194-125.867 259.194-336.697 0-221.354-94.19-338.355-272.387-338.355m41.368 499.858c-10.954 10.968-25.56 16.3-44.665 16.3-76.11 0-82.157-84.213-82.157-194.3 0-111.526 12.292-164.607 82.157-164.607 47.662 0 73.912 56.705 73.912 159.666l.007 12.101c.082 72.711.164 141.395-29.254 170.84M6050.924-1482.442h-187.118c-43.409-196.776-2.935-486.064-2.518-488.978a5.243 5.243 0 0 0-5.187-5.985h-187.808a5.24 5.24 0 0 0-3.815 1.644 5.28 5.28 0 0 0-1.42 3.911c20.81 347.604 10.633 621.602 10.531 624.326a5.22 5.22 0 0 0 1.632 4.013 5.27 5.27 0 0 0 4.095 1.412c91.679-8.654 368.762-5.275 371.54-5.24h.068a5.25 5.25 0 0 0 3.686-1.516 5.24 5.24 0 0 0 1.557-3.727V-1477.2a5.244 5.244 0 0 0-5.243-5.242"/></g><g fill="#d5ae5c"><path d="M4026.23-1252.825h232.674l-21.582 59.985h-145.656l-16.072 44.657h135.13l-20.617 57.313h-135.124l-19.921 55.385h149.882l-22.888 63.634h-236.893zM4392.775-1252.825h95.642l18.643 86.435 79.484-86.435h94.685l-136.402 136.074 43.579 144.9h-97.558l-23.015-90.279-87.961 90.28h-96.982l149.587-146.434zM4818.937-1252.825h144.324q47.148 0 62.556 22.419c10.272 14.953 10.453 36.22.522 63.829-10.204 28.358-26.704 50.53-49.511 66.507q-34.203 23.954-86.717 23.952h-47.53l-37.505 104.267h-87.205zm44.115 119.789h21.274c16.74 0 29.537-2.906 38.41-8.725 8.859-5.812 14.925-13.259 18.186-22.332 3.174-8.812 2.92-16.292-.75-22.419-3.676-6.134-13.62-9.2-29.845-9.2h-24.729zM5104.927-971.85l101.066-280.975H5350.7q40.247-.001 59.04 6.897c12.53 4.6 20.893 13.125 25.105 25.58q6.32 18.7-3.342 45.528-8.409 23.382-24.481 40.344c-10.72 11.303-23.156 20.471-37.318 27.496-9.02 4.486-20.517 8.182-34.493 11.122 9.107 3.455 15.395 6.91 18.884 10.359 2.357 2.303 5.21 7.231 8.564 14.771q5.033 11.321 5.886 17.457l12.763 81.42h-98.106l-15.53-85.866c-1.88-11.115-4.519-18.334-7.927-21.655-4.694-4.346-11.002-6.523-18.924-6.523h-7.667l-41.021 114.044zm147.317-167.132h36.615c3.951 0 12.08-1.279 24.374-3.837q9.25-1.72 17.263-8.813c5.337-4.727 9.114-10.158 11.316-16.292 3.262-9.073 2.894-16.03-1.11-20.891-3.998-4.85-13.93-7.287-29.772-7.287h-38.142zM5612.033-1252.825h232.674l-21.582 59.985h-145.657l-16.07 44.657h135.13l-20.618 57.313h-135.123l-19.922 55.385h149.882l-22.888 63.634h-236.892zM5914.97-1064.808l84.467-5.176c-3.04 13.413-3.073 23.644-.1 30.669 4.848 11.37 15.582 17.055 32.188 17.055q18.605 0 31.794-8.719 13.2-8.72 17.337-20.222c2.617-7.285 1.774-13.801-2.552-19.553-4.319-5.746-17.189-11.177-38.597-16.285-35.008-8.559-58.07-19.941-69.192-34.118-11.256-14.183-12.93-32.262-5.022-54.246 5.19-14.43 14.283-28.077 27.274-40.914 12.99-12.843 29.202-22.935 48.654-30.287q29.161-11.017 73.056-11.015 53.857 0 74.918 20.028c14.042 13.353 17.618 34.593 10.714 63.728l-83.562 4.788q3.564-18.966-3.77-27.595c-4.902-5.752-13.48-8.632-25.747-8.632-10.092 0-18.469 2.143-25.118 6.422-6.65 4.285-11.083 9.488-13.285 15.622q-2.414 6.708 1.982 12.08c2.752 3.703 11.23 7.152 25.405 10.346 35.015 8.176 59.222 16.452 72.628 24.816 13.406 8.377 21.621 18.756 24.642 31.15 3.013 12.396 1.768 26.257-3.75 41.592-6.482 18.012-17.437 34.626-32.878 49.826q-23.151 22.82-54.227 34.6c-20.718 7.86-44.677 11.785-71.89 11.785q-71.687 0-89.355-27.602c-11.785-18.395-13.795-41.777-6.013-70.143M6300.5-1064.808l84.466-5.176c-3.04 13.413-3.073 23.644-.1 30.669 4.848 11.37 15.582 17.055 32.189 17.055q18.603 0 31.793-8.719 13.199-8.72 17.337-20.222c2.618-7.285 1.774-13.801-2.551-19.553-4.32-5.746-17.19-11.177-38.597-16.285-35.008-8.559-58.07-19.941-69.193-34.118-11.256-14.183-12.93-32.262-5.022-54.246 5.19-14.43 14.283-28.077 27.274-40.914 12.99-12.843 29.202-22.935 48.654-30.287q29.161-11.017 73.057-11.015 53.856 0 74.917 20.028c14.042 13.353 17.618 34.593 10.714 63.728l-83.563 4.788q3.566-18.966-3.769-27.595c-4.902-5.752-13.48-8.632-25.747-8.632-10.091 0-18.468 2.143-25.118 6.422-6.65 4.285-11.082 9.488-13.285 15.622-1.607 4.473-.951 8.498 1.982 12.08 2.752 3.703 11.23 7.152 25.406 10.346 35.014 8.176 59.22 16.452 72.627 24.816 13.406 8.377 21.622 18.756 24.642 31.15 3.013 12.396 1.768 26.257-3.75 41.592-6.482 18.012-17.437 34.626-32.878 49.826-15.435 15.214-33.508 26.745-54.227 34.6-20.718 7.86-44.676 11.785-71.89 11.785q-71.687 0-89.355-27.602c-11.785-18.395-13.794-41.777-6.013-70.143"/></g><path fill="#d5ae5c" d="M3825.635-1165.953H2011.678l35.014-93.435h1813.956zM3755.37-978.455H1941.415l35.014-93.435h1813.957z"/><g fill="#d5ae5c"><path d="M882.815 365.988c-.947-.602 98.064-51.201 178.925-47.486 82.163 1.584 228.07 81.346 226.351 81.746-2.01-1.594-141.93 50.311-232.105 42.588-92.02-9.95-166.45-48.2-166.485-48.484-.402-.024 67.233-32.968 151.535-35.208 84.3-2.605 160.936 25.521 160.636 25.39.679-.221-101.41-40.297-165.893-37.644-63.586 1.402-153.085 18.719-152.964 19.098M1015.022 277.946c-.979-.082 58.5-75.9 143.368-101.054 83.422-29.31 303.933-7.574 303.188-5.294-2.72-1.2-125.403 80.242-223.13 104.778-101.135 22.319-197.114 20.757-197.735 20.629.063.24 50.588-32.004 135.825-58.493 94.401-30.339 201.846-54.025 202.09-53.76.368.38-90.355 9.527-205.555 43.721-65.325 18.437-158.302 49.03-158.051 49.473M673.024 510.37c-.966-.466 83.274-66.222 161.44-73.11 79.133-9.3 236.734 54.971 235.17 55.665-2.044-1.3-122.975 71.353-211.97 74.894-90.97 1.563-171.742-28.518-171.808-28.803-.381.038 57.764-43.093 138.185-56.547 80.374-13.833 159.968 5.482 159.671 5.395.611-.336-106.206-28.797-167.554-17.502-60.661 9.865-143.294 39.636-143.134 40.008M500.235 687.557c-.978-.336 67.389-79.417 141.738-96.774 74.93-20 241.651 26.463 240.272 27.433-2.068-1.012-102.827 89.91-189.21 104.935-88.481 13.287-174.067-7.328-174.168-7.619-.355.096 47.504-52.097 122.869-76.48 75.266-24.763 156.59-14.988 156.3-15.03.529-.443-109.307-16.198-166.619 3.495-56.865 18.108-131.387 59.68-131.182 60.04M363.561 899.791c-.984-.208 49.886-91.115 119.018-119.027 69.27-30.77 242.319-4.77 241.164-3.55-2.087-.726-80.818 106.43-162.86 133.404-84.277 25.493-173.014 15.806-173.156 15.523-.326.153 36.082-60.192 104.923-95.467 68.683-35.672 150.333-36.333 150.053-36.337.432-.537-110.507-2.243-162.644 25.803-51.962 26.311-116.753 79.304-116.498 79.651M273.623 1130.072c-.982-.088 31.776-100.612 94.518-138.485 62.401-40.898 238.24-36.555 237.334-35.108-2.087-.458-58.247 119.944-134.336 158.518-78.452 37.342-168.3 39.281-168.484 39-.288.204 24.164-66.885 85.297-112.31 60.916-45.82 141.325-57.119 141.054-57.082.326-.63-109.518 12.084-155.58 47.891-46.181 33.964-100.113 97.243-99.803 97.576M228.294 1379.85c-.975.028 12.566-108.284 67.511-155.763 54.073-50.633 229.054-69.44 228.424-67.791-2.082-.194-34.478 130.97-102.76 181.048-70.772 49.088-159.621 63.501-159.851 63.226-.245.25 11.408-72.424 63.394-127.514 51.704-55.478 129.177-77.784 128.919-77.707.208-.706-106.196 27.022-145.078 70.198-39.324 41.238-80.916 113.982-80.559 114.302M871.389 352.482c-.267-.685 95.173-53.087 141.813-104.786 41.961-53.637 85.316-188.636 87.654-188.148-.953-2.456-193.73 52.695-236.389 131.056-44.897 75.333-23.27 147.282-23.756 146.97.223-.112 61.895-41.18 114.292-97.51 51.72-56.72 85.11-119.586 85.193-119.687-.97-.184-36.72 86.755-74.262 129.475-40.246 41.834-95.033 102.379-94.545 102.63M658.932 497.807c-.341-.667 80.09-67.764 112.518-128.17 27.834-61.619 36.405-209.677 38.638-209.566-1.152-2.335-171.118 82.318-194.622 169.772-25.942 84.746 10.92 156.713 10.426 156.473.193-.15 50.772-50.966 87.986-116.88 36.537-66.204 53.22-136.862 53.284-136.983-.923-.026-14.305 96.144-40.524 145.76-28.855 49.155-68.194 119.412-67.706 119.594M483.774 676.387c-.414-.645 63.973-80.571 82.055-147.628 13.614-67.587-11.803-223.281-9.706-223.532-1.37-2.206-146.501 108.864-150.845 202.685-6.969 91.423 44.204 161.057 43.707 160.886.158-.195 38.997-59.358 60.799-132.702 21.122-73.534 21.29-149.447 21.33-149.579-.865.123 7.76 102.098-6.99 157.023-17.28 54.856-40.839 132.729-40.35 132.847M345.017 890.487c-.503-.61 46.297-91.813 49.55-163.646-1.032-71.689-60.266-229.879-58.339-230.482-1.6-2.06-119.057 133.008-103.787 230.64 12.443 95.551 77.205 160.472 76.706 160.369.113-.229 26.204-66.56 31.974-145.373 5.1-78.912-11.395-157.687-11.382-157.837-.793.262 29.89 104.836 27.054 163.6-5.24 59.09-12.26 142.675-11.776 142.729M253.452 1122.964c-.59-.582 28.1-100.833 17.016-175.357-15.15-73.76-105.67-229.446-103.94-230.356-1.836-1.92-90.391 153.335-56.358 252.096 31.01 96.997 107.631 155.256 107.137 155.213.067-.256 13.152-72.152 3.318-154.229-10.491-82.087-42.672-161.296-42.685-161.454-.707.39 50.58 104.338 59.319 165.318 6.496 61.657 15.717 148.778 16.193 148.77M206.933 1375.279c-.686-.543 8.887-107.992-16.393-183.36-29.078-74.02-149.012-222.604-147.506-223.804-2.082-1.764-59.723 170.587-7.345 268.068 49.174 96.03 136.154 145.704 135.667 145.722.011-.284-.512-76.386-25.908-159.771-26.04-83.32-73.258-160.752-73.302-160.924-.613.51 70.274 100.9 90.537 162.652 18.214 62.758 43.785 151.486 44.25 151.417"/></g><g fill="#6e4e37"><path d="M3693.09 2104.02c-18.5-11.624-33.11-20.811-36.867-24.564-5.515-5.516-7.286-12.348-4.99-19.242 4.71-14.122 24.227-24.933 52.208-28.932 72.793-10.362 178.166 64.24 179.221 64.998a5.245 5.245 0 0 0 8.293-4.266V1961.15c0-1.461-.608-2.854-1.68-3.843-92.278-85.488-296.126-69.49-380.914 4.819-27.431 24.046-42.1 53.074-43.604 86.28-2.4 53.006 29.776 101.63 49.163 121.996 27.124 28.503 60.559 47.416 92.89 65.695 37.895 21.431 73.69 41.676 96.467 75.318 10.473 15.48 12.473 30.216 5.48 40.44-10.302 15.064-38.604 19.01-75.737 10.553-82.236-18.736-144.637-73.994-145.258-74.554a5.23 5.23 0 0 0-5.635-.88 5.23 5.23 0 0 0-3.105 4.784v152.507c0 1.474.621 2.88 1.71 3.876 27.643 25.2 119.041 60.828 219.89 60.828 21.718 0 43.88-1.652 65.93-5.42 54.115-9.234 95.477-35.075 119.608-74.717 24.268-39.867 29.154-91.125 13.402-140.637-21.64-68.015-141.876-143.579-206.472-184.176M4316.061 1863.098c-.46-2.615-2.815-4.574-5.447-4.328-94.49 5.126-206.952-1.229-208.082-1.297a5.27 5.27 0 0 0-4.969 2.853c-33.581 65.872-172.099 611.678-177.979 634.878a5.25 5.25 0 0 0 .99 4.566c1.027 1.283 2.62 1.938 4.242 1.965 44.679-1.297 178.504 2.553 179.856 2.594h.153a5.24 5.24 0 0 0 5.195-4.573l9.872-76.512c61.436-10.218 127.297-3.024 142.788-1.072l21.124 78.28a5.23 5.23 0 0 0 2.491 3.201 5.24 5.24 0 0 0 4.027.471c47.86-13.855 202.803-6.361 204.363-6.286 1.822.13 3.7-.853 4.706-2.463a5.24 5.24 0 0 0 .14-5.31c-105.917-191.412-182.71-622.633-183.47-626.967m-72.663 423.29-88.915-1.127c7.45-26.66 34.772-125.505 46.826-183.835zM5032.727 2030.715c0-114.189-133.42-163.591-201.478-163.591h-300.567c-1.69 0-3.273.813-4.259 2.184a5.26 5.26 0 0 0-.706 4.737c.58 1.72 57.34 176.757 5.951 622.804a5.25 5.25 0 0 0 1.37 4.17c1.04 1.112 2.477 1.747 4.053 1.665 1.454-.054 147.166-5.945 252.556 1.59 10.696.765 21.06 1.147 31.08 1.147 110.008 0 179-45.86 200.308-133.764 25.425-104.879-.058-158.54-47.375-204.543 16.907-10.477 59.067-45.69 59.067-136.399m-313.32 222.27c23.074-2.854 80.92-6.805 111.183 19.438 12.279 10.648 18.503 25.308 18.503 43.58 0 11.173-3.986 19.985-12.186 26.947-28.947 24.578-99.235 17.111-117.5 14.688zm102.699-148.917c-28.896 26.127-85.976 24.96-102.698 24.018v-116.052c16.111-2.594 74.372-9.972 103.278 13.678 11.108 9.092 16.51 21.514 16.51 37.983 0 16.532-5.75 30.12-17.09 40.373M5330.413 1839.959c-185.118 0-278.98 110.51-278.98 328.458 0 233.224 95.572 346.594 292.173 346.594 162.298 0 259.195-125.867 259.195-336.703 0-221.348-94.19-338.349-272.388-338.349m-3.296 157.25c47.661 0 73.912 56.699 73.912 159.66l.01 12.101c.082 72.711.16 141.395-29.254 170.84-10.954 10.968-25.568 16.299-44.668 16.299-76.107 0-82.158-84.205-82.158-194.292 0-111.527 12.293-164.608 82.158-164.608M6517.403 2344.69h-270.299c-136.76 0-205.95-24.278-259.924-92.225 32.058-12.047 159.857-71.427 159.857-251.81 0-86.374-38.433-152.614-111.151-191.547-53.388-28.591-111.432-34.85-129.287-34.85-24.326 0-267.917 3.474-270.374 3.508a5.249 5.249 0 0 0-5.167 5.351c.123 5.842 12.16 585.674 1.771 712.066a5.246 5.246 0 0 0 5.225 5.672q.261.001.522-.027c1.222-.117 122.796-12.095 179.327-1.81a5.35 5.35 0 0 0 4.389-1.214 5.26 5.26 0 0 0 1.781-4.198l-10.265-212.147h31.178c10.58 28.633 86.942 217.642 256.437 217.642h415.98a5.243 5.243 0 0 0 5.243-5.243v-143.926a5.244 5.244 0 0 0-5.243-5.242m-565.149-331.748c0 22.019-7.399 39.607-21.998 52.283-33.97 29.471-97.548 25.485-114.953 23.779V1935.18c17.487-1.53 80.928-4.682 114.878 25.131 14.647 12.866 22.073 30.571 22.073 52.63"/><path d="M6340.796 2286.032c36.216 11.228 76.13 16.068 115.015 16.068 65.421 0 127.915-13.706 164.908-33.746a5.23 5.23 0 0 0 2.744-4.606v-138.665a5.238 5.238 0 0 0-7.214-4.853c-1.789.716-178.853 71.851-242.643 28.933-13.691-9.215-20.934-22.879-22.046-41.655H6627a5.24 5.24 0 0 0 5.173-4.41c.226-1.385 5.379-34.27 2.09-77.632-3.052-40.229-14.334-97.16-50.762-139.886-35.28-41.383-87.371-62.364-154.833-62.364-129.37 0-191.18 56.671-220.249 104.217-43.546 71.216-42.993 169.386 1.447 256.205 24.953 48.747 69.005 83.194 130.931 102.394m17.692-269.746c.73-33.833 9.337-66.74 57.886-66.74 12.129 0 21.432 3.817 28.448 11.666 14.265 15.951 14.559 44.023 14.06 55.074zM6985.427 1861.78c-.457-2.6-2.573-4.49-5.44-4.327-94.525 5.112-206.96-1.236-208.085-1.297-2.075-.075-4.027 1.003-4.97 2.853-33.587 65.872-172.101 611.678-177.978 634.877a5.21 5.21 0 0 0 .99 4.567c1.023 1.276 2.532 1.822 4.238 1.965 44.7-1.29 178.511 2.553 179.856 2.594h.15a5.25 5.25 0 0 0 5.201-4.573l9.87-76.52c61.442-10.217 127.3-3.023 142.794-1.065l21.124 78.281a5.23 5.23 0 0 0 2.485 3.2c1.228.705 2.69.86 4.033.472 47.847-13.849 202.803-6.361 204.36-6.286 1.89.177 3.699-.847 4.71-2.464a5.25 5.25 0 0 0 .135-5.31c-105.916-191.412-182.709-622.633-183.473-626.967m-72.663 423.29-88.908-1.126c7.447-26.66 34.769-125.499 46.823-183.835zM7869.254 1841.276c-185.118 0-278.98 110.51-278.98 328.458 0 233.224 95.568 346.594 292.174 346.594 162.301 0 259.194-125.867 259.194-336.697 0-221.354-94.19-338.355-272.388-338.355m41.369 499.858c-10.955 10.969-25.561 16.299-44.665 16.299-76.11 0-82.158-84.212-82.158-194.298 0-111.528 12.293-164.608 82.158-164.608 47.662 0 73.912 56.705 73.912 159.666l.007 12.101c.082 72.711.164 141.395-29.254 170.84M7585.516 2360.286h-187.118c-43.41-196.776-2.935-486.063-2.519-488.978a5.22 5.22 0 0 0-1.228-4.177 5.24 5.24 0 0 0-3.959-1.809h-187.807a5.24 5.24 0 0 0-3.816 1.645 5.28 5.28 0 0 0-1.42 3.911c20.811 347.604 10.635 621.602 10.532 624.326a5.22 5.22 0 0 0 1.632 4.013 5.26 5.26 0 0 0 4.095 1.413c91.678-8.655 368.762-5.276 371.54-5.242h.068a5.24 5.24 0 0 0 5.242-5.242v-124.618a5.243 5.243 0 0 0-5.242-5.242"/></g><g fill="#d5ae5c"><path d="M4030.822 2754.903h232.674l-21.582 59.985h-145.657l-16.07 44.657h135.13l-20.619 57.313h-135.123l-19.921 55.385h149.882l-22.888 63.634h-236.893zM4397.367 2754.903h95.642l18.643 86.435 79.484-86.435h94.685l-136.403 136.075 43.58 144.9h-97.558l-23.015-90.28-87.962 90.28h-96.982l149.588-146.434zM4823.529 2754.903h144.324q47.148 0 62.556 22.42c10.272 14.952 10.453 36.219.523 63.828-10.206 28.358-26.705 50.53-49.513 66.507q-34.202 23.954-86.716 23.952h-47.53l-37.506 104.267h-87.205zm44.115 119.79h21.273c16.741 0 29.538-2.907 38.41-8.726 8.859-5.812 14.926-13.259 18.187-22.332 3.174-8.813 2.92-16.292-.75-22.419-3.676-6.134-13.62-9.2-29.845-9.2h-24.73zM5109.519 3035.877l101.066-280.974h144.706q40.248-.001 59.04 6.897c12.529 4.6 20.893 13.125 25.105 25.58 4.211 12.468 3.1 27.642-3.342 45.528-5.605 15.589-13.767 29.034-24.482 40.344-10.72 11.304-23.155 20.471-37.318 27.495-9.02 4.486-20.517 8.183-34.492 11.123 9.107 3.455 15.395 6.91 18.884 10.359 2.356 2.303 5.209 7.231 8.564 14.771q5.032 11.32 5.886 17.458l12.763 81.42h-98.107l-15.528-85.866c-1.882-11.116-4.52-18.335-7.929-21.656-4.694-4.346-11.002-6.523-18.923-6.523h-7.667l-41.021 114.044zm147.317-167.131h36.615c3.95 0 12.08-1.279 24.374-3.837q9.25-1.72 17.263-8.812c5.337-4.728 9.114-10.159 11.317-16.292 3.26-9.074 2.892-16.031-1.112-20.892-3.998-4.849-13.928-7.286-29.772-7.286h-38.141zM5616.625 2754.903h232.674l-21.582 59.985H5682.06l-16.072 44.657h135.13l-20.618 57.313h-135.123l-19.921 55.385h149.882l-22.888 63.634h-236.893zM5919.563 2942.92l84.466-5.176c-3.04 13.412-3.074 23.645-.1 30.669 4.847 11.37 15.581 17.055 32.188 17.055q18.605 0 31.794-8.718 13.199-8.721 17.337-20.223c2.618-7.285 1.774-13.8-2.552-19.553-4.319-5.745-17.19-11.176-38.597-16.285-35.008-8.558-58.07-19.942-69.192-34.118q-16.885-21.272-5.022-54.246c5.19-14.43 14.283-28.077 27.274-40.914 12.99-12.844 29.202-22.935 48.654-30.287q29.16-11.017 73.056-11.015 53.856 0 74.918 20.028c14.042 13.352 17.618 34.592 10.713 63.728l-83.562 4.788c2.378-12.642 1.12-21.843-3.77-27.595-4.9-5.752-13.479-8.631-25.747-8.631-10.09 0-18.468 2.142-25.117 6.421-6.65 4.286-11.083 9.488-13.285 15.622-1.608 4.473-.952 8.498 1.981 12.08 2.753 3.703 11.23 7.152 25.406 10.346 35.015 8.176 59.221 16.453 72.627 24.816 13.406 8.377 21.622 18.756 24.643 31.151 3.013 12.395 1.767 26.256-3.75 41.59-6.482 18.013-17.437 34.627-32.88 49.827q-23.15 22.82-54.225 34.6c-20.718 7.861-44.677 11.785-71.89 11.785q-71.688 0-89.355-27.602c-11.786-18.395-13.795-41.778-6.014-70.143M6305.092 2942.92l84.466-5.176c-3.04 13.412-3.073 23.645-.1 30.669 4.848 11.37 15.582 17.055 32.188 17.055q18.605 0 31.794-8.718 13.198-8.721 17.337-20.223c2.618-7.285 1.774-13.8-2.551-19.553-4.32-5.745-17.19-11.176-38.598-16.285-35.007-8.558-58.07-19.942-69.192-34.118q-16.884-21.272-5.022-54.246c5.19-14.43 14.283-28.077 27.274-40.914 12.99-12.844 29.202-22.935 48.654-30.287q29.161-11.017 73.056-11.015 53.857 0 74.918 20.028c14.042 13.352 17.618 34.592 10.714 63.728l-83.562 4.788c2.377-12.642 1.118-21.843-3.77-27.595-4.902-5.752-13.48-8.631-25.748-8.631-10.09 0-18.468 2.142-25.117 6.421-6.65 4.286-11.082 9.488-13.285 15.622q-2.414 6.708 1.982 12.08c2.752 3.703 11.23 7.152 25.405 10.346 35.015 8.176 59.222 16.453 72.628 24.816 13.406 8.377 21.622 18.756 24.642 31.151 3.013 12.395 1.768 26.256-3.75 41.59-6.482 18.013-17.437 34.627-32.878 49.827q-23.152 22.82-54.226 34.6c-20.72 7.861-44.678 11.785-71.892 11.785q-71.686 0-89.355-27.602c-11.785-18.395-13.793-41.778-6.012-70.143"/></g><path fill="#d5ae5c" d="M3830.226 2841.775H2016.27l35.014-93.434H3865.24zM3759.962 3029.273H1946.006l35.014-93.434h1813.956z"/><g fill="#6e4e37"><path d="M6047.117 5153.92c-.244-1.096 105.547 33.137 160.097 92.94 56.978 59.218 103.75 218.79 102.251 217.859-.294-2.549-135.934-64.784-194.237-134.009-58.032-72.104-83.616-151.781-83.44-152.006-.267-.302 70.854 24.228 132.047 82.255 61.451 57.767 95.753 131.846 95.634 131.54.637.324-43.214-100.202-90.686-143.922-45.953-43.971-121.483-95.011-121.666-94.658M6202.857 5185.149c-.634-.75 95.036-12.304 172.832 29.92 79.714 38.264 220.27 209.557 218.13 210.643-1.075-2.773-145.413-31.934-231.866-83.687-87.294-55.732-154.058-124.704-154.407-125.233-.125.214 58.402 13.14 137.404 54.682 88.204 45.299 180.928 104.525 180.913 104.885-.008.53-70.626-57.154-176.265-114.434-59.228-33.155-146.605-77.267-146.741-76.776M5796.68 5107.668c-.354-1.012 105.709 12.058 165.851 62.459 62.532 49.38 128.526 206.267 126.93 205.652-.526-2.365-137.41-36.503-202.845-96.928-65.43-63.22-101.274-141.604-101.12-141.854-.295-.242 71.317 10.375 137.697 57.728 66.615 47.051 109.238 116.99 109.09 116.719.67.195-54.737-95.461-106.103-130.854-49.869-35.92-129.35-73.298-129.5-72.922M5549.209 5110.779c-.454-.93 103.807-8.506 168.653 31.794 67.125 38.84 152.16 189.585 150.5 189.296-.747-2.178-136.285-9.135-207.991-59.591-71.962-53.171-117.904-128.266-117.77-128.544-.317-.183 70.43-3.248 140.962 32.802 70.732 35.712 121.325 100.128 121.148 99.893.687.061-65.837-88.745-120.288-115.346-53.014-27.405-135.105-50.704-135.214-50.304M5302.494 5164.207c-.55-.843 99.702-29.152 168.323-.006 70.738 27.223 174.718 167.972 173.038 168.019-.962-1.99-132.403 18.11-209.49-20.83-77.619-41.565-133.516-111.161-133.415-111.463-.339-.122 68.075-17.048 141.696 6.686 73.79 23.343 131.993 80.612 131.798 80.41.685-.074-76.554-79.726-133.252-96.76-55.347-18.138-138.633-26.481-138.698-26.056M5076.064 5263.444c-.631-.757 93.613-48.673 164.759-31.089 73.043 15.206 194.309 142.613 192.645 142.996-1.152-1.8-126 43.626-207.078 17.1-81.88-29.07-146.783-91.231-146.714-91.56-.348-.059 64.381-30.208 139.73-19.101 75.473 10.675 140.32 59.543 140.102 59.377.676-.215-85.986-68.896-143.876-76.147-56.67-8.64-139.55-2.03-139.568-1.576M4867.393 5408.012c-.71-.67 85.453-67.683 157.878-62.404 74.039 2.433 211.067 112.864 209.456 113.585-1.335-1.61-116.99 68.23-200.683 55.358-84.754-15.333-157.772-67.967-157.74-68.324-.35.003 59.279-43.145 134.992-45.34 75.79-2.668 146.345 36.34 146.108 36.213.646-.353-94.2-55.985-152.224-52.949-56.966 1.354-137.813 23.381-137.787 23.86M6048.588 5136.29c.295-.673 104.836 29.76 174.372 26.182 67.598-8.256 193.714-73.058 195.022-71.06 1.063-2.41-174.25-99.727-259.823-74.482-85.015 21.522-120.598 87.69-120.722 87.125.237.08 72.885 14.648 149.767 11.867 76.679-3.534 144.742-24.377 144.871-24.39-.555-.817-87.31 35.38-144.063 39.041-58.04 1.123-139.592 5.194-139.424 5.716M5795.598 5088.82c.23-.713 104.548 8.716 170.192-11.067 63.252-23.89 174.006-122.522 175.507-120.864.837-2.466-179.206-62.791-257.665-17.573-78.27 41.582-103.092 118.536-103.271 118.017.242.03 71.94-.138 144.862-20.433 72.649-20.976 134.408-59.143 134.539-59.182-.635-.671-78.099 57.868-131.722 74.412-55.162 14.354-132.659 36.217-132.442 36.69M5545.468 5091.24c.162-.749 102.208-11.736 162.41-46.367 57.417-38.164 149.538-166.23 151.198-164.924.591-2.528-180.57-26.614-249.984 36.656-69.573 59.718-82.628 145.142-82.858 144.67.25-.026 69.548-14.398 136.826-50.843 66.932-37.06 120.73-90.62 120.851-90.686-.699-.525-66.707 77.68-115.974 106.09-51.009 26.568-122.731 64.975-122.47 65.404M5295.96 5144.516c.076-.787 97.659-32.185 150.752-80.678 49.962-51.422 119.934-205.163 121.724-204.228.325-2.589-178.237 9.866-236.475 89.699-58.767 76.363-58.88 168.063-59.16 167.637.242-.082 65.595-28.536 125.404-80.185 59.404-52.194 103.443-119.559 103.559-119.656-.746-.376-52.995 95.266-96.553 134.812-45.487 38.078-109.555 92.219-109.251 92.599M5066.827 5244.155c-.005-.828 91.17-51.43 136.029-111.963 41.443-62.868 87.522-236.963 89.39-236.382.059-2.657-172.34 44.506-218.11 138.406-46.66 90.514-33.676 185.89-33.995 185.51.228-.134 60.318-41.72 111.402-106.71 50.626-65.462 83.88-144.227 83.982-144.349-.775-.224-38.012 109.544-74.952 158.843-39.005 48.191-94.089 116.315-93.746 116.645M4855.52 5389.675c-.102-.869 82.646-70.077 118.064-141.246 31.777-72.901 52.037-262.773 53.95-262.556-.224-2.72-162.853 78.393-194.745 184.359-33.134 102.675-6.754 199.303-7.111 198.972.209-.193 53.65-54.375 94.656-131.295 40.503-77.329 61.867-165.47 61.958-165.623-.795-.072-21.657 121.038-50.994 179.031-31.497 57.256-76.156 138.078-75.778 138.358M2163.09 5819.02c-18.5-11.624-33.11-20.81-36.867-24.565-5.515-5.515-7.286-12.347-4.99-19.24 4.71-14.122 24.227-24.933 52.208-28.933 72.793-10.361 178.166 64.24 179.221 64.998a5.245 5.245 0 0 0 8.293-4.267V5676.15c0-1.46-.608-2.852-1.68-3.842-92.278-85.488-296.126-69.49-380.914 4.819-27.431 24.046-42.1 53.074-43.604 86.28-2.4 53.005 29.776 101.63 49.163 121.996 27.124 28.504 60.559 47.416 92.89 65.695 37.895 21.432 73.69 41.675 96.467 75.318 10.473 15.48 12.473 30.216 5.48 40.44-10.302 15.064-38.604 19.01-75.737 10.553-82.236-18.736-144.637-73.994-145.258-74.554a5.23 5.23 0 0 0-5.635-.88 5.23 5.23 0 0 0-3.105 4.785v152.506c0 1.474.621 2.88 1.71 3.877 27.643 25.2 119.041 60.828 219.89 60.828 21.718 0 43.88-1.653 65.93-5.42 54.115-9.235 95.477-35.075 119.608-74.718 24.268-39.867 29.154-91.125 13.402-140.637-21.64-68.014-141.876-143.579-206.472-184.176M2786.061 5578.097c-.46-2.614-2.815-4.573-5.447-4.327-94.49 5.126-206.952-1.229-208.082-1.297a5.26 5.26 0 0 0-4.969 2.853c-33.581 65.872-172.099 611.678-177.979 634.878a5.24 5.24 0 0 0 .99 4.566c1.027 1.283 2.62 1.938 4.242 1.966 44.679-1.298 178.504 2.552 179.856 2.593h.153a5.24 5.24 0 0 0 5.195-4.573l9.872-76.512c61.436-10.218 127.297-3.024 142.788-1.072l21.124 78.28a5.23 5.23 0 0 0 2.491 3.201 5.24 5.24 0 0 0 4.027.471c47.86-13.855 202.803-6.36 204.363-6.286 1.822.13 3.7-.853 4.706-2.464a5.24 5.24 0 0 0 .14-5.31c-105.917-191.412-182.71-622.633-183.47-626.967m-72.663 423.29-88.915-1.126c7.45-26.66 34.772-125.505 46.826-183.835zM3502.727 5745.715c0-114.188-133.42-163.59-201.478-163.59h-300.567c-1.69 0-3.273.812-4.259 2.184a5.26 5.26 0 0 0-.706 4.736c.58 1.72 57.34 176.758 5.951 622.804a5.25 5.25 0 0 0 1.37 4.17c1.04 1.112 2.477 1.747 4.053 1.665 1.454-.054 147.166-5.945 252.557 1.59 10.695.765 21.06 1.147 31.08 1.147 110.008 0 178.999-45.86 200.307-133.763 25.425-104.88-.058-158.541-47.375-204.544 16.907-10.477 59.067-45.69 59.067-136.399m-313.32 222.269c23.074-2.853 80.92-6.804 111.183 19.439 12.279 10.647 18.504 25.309 18.504 43.58 0 11.173-3.987 19.985-12.187 26.947-28.947 24.578-99.234 17.111-117.5 14.688zm102.699-148.916c-28.895 26.127-85.976 24.96-102.698 24.019v-116.052c16.111-2.595 74.373-9.972 103.278 13.677 11.108 9.092 16.51 21.514 16.51 37.984 0 16.531-5.75 30.12-17.09 40.372M3800.413 5554.959c-185.118 0-278.98 110.51-278.98 328.458 0 233.224 95.572 346.594 292.174 346.594 162.298 0 259.194-125.867 259.194-336.703 0-221.348-94.19-338.349-272.388-338.349m-3.296 157.25c47.661 0 73.912 56.699 73.912 159.66l.01 12.101c.082 72.711.16 141.395-29.254 170.84-10.954 10.968-25.567 16.299-44.668 16.299-76.107 0-82.158-84.205-82.158-194.291 0-111.528 12.293-164.609 82.158-164.609M4987.403 6059.69h-270.299c-136.76 0-205.95-24.277-259.924-92.225 32.058-12.046 159.857-71.427 159.857-251.809 0-86.375-38.433-152.616-111.151-191.547-53.388-28.592-111.432-34.851-129.287-34.851-24.326 0-267.917 3.474-270.374 3.509a5.249 5.249 0 0 0-5.167 5.35c.123 5.842 12.16 585.673 1.771 712.066a5.247 5.247 0 0 0 5.225 5.672q.261.002.522-.028c1.222-.116 122.796-12.094 179.327-1.808a5.35 5.35 0 0 0 4.389-1.215 5.26 5.26 0 0 0 1.781-4.198l-10.265-212.146h31.178c10.58 28.632 86.942 217.641 256.437 217.641h415.98a5.243 5.243 0 0 0 5.243-5.242v-143.927a5.243 5.243 0 0 0-5.243-5.242m-565.149-331.748c0 22.018-7.399 39.608-21.998 52.283-33.97 29.471-97.548 25.486-114.953 23.779V5650.18c17.487-1.53 80.928-4.682 114.878 25.131 14.647 12.866 22.073 30.57 22.073 52.63"/><path d="M4810.796 6001.032c36.216 11.228 76.13 16.067 115.015 16.067 65.421 0 127.915-13.705 164.908-33.745a5.23 5.23 0 0 0 2.744-4.606v-138.665a5.237 5.237 0 0 0-7.214-4.853c-1.789.716-178.853 71.851-242.643 28.933-13.691-9.214-20.934-22.879-22.046-41.656H5097a5.24 5.24 0 0 0 5.173-4.41c.226-1.385 5.379-34.27 2.09-77.63-3.052-40.23-14.334-97.16-50.762-139.887-35.28-41.382-87.371-62.364-154.833-62.364-129.37 0-191.18 56.671-220.249 104.218-43.546 71.215-42.993 169.384 1.447 256.204 24.953 48.746 69.005 83.195 130.931 102.394m17.692-269.745c.73-33.834 9.337-66.74 57.886-66.74 12.129 0 21.432 3.815 28.448 11.664 14.265 15.952 14.559 44.025 14.06 55.076zM5455.427 5576.78c-.457-2.6-2.573-4.49-5.44-4.327-94.525 5.111-206.96-1.236-208.085-1.297-2.075-.075-4.027 1.003-4.97 2.853-33.587 65.871-172.101 611.678-177.978 634.878a5.21 5.21 0 0 0 .99 4.565c1.023 1.277 2.532 1.823 4.238 1.966 44.7-1.29 178.511 2.553 179.856 2.593h.15a5.25 5.25 0 0 0 5.201-4.572l9.87-76.52c61.442-10.217 127.3-3.023 142.794-1.064l21.124 78.28a5.22 5.22 0 0 0 2.485 3.2 5.2 5.2 0 0 0 4.033.472c47.847-13.849 202.803-6.36 204.36-6.286 1.89.177 3.699-.846 4.71-2.464a5.25 5.25 0 0 0 .135-5.31c-105.916-191.412-182.709-622.633-183.473-626.967m-72.663 423.29-88.908-1.126c7.447-26.66 34.769-125.498 46.823-183.835zM6339.254 5556.276c-185.118 0-278.98 110.51-278.98 328.459 0 233.223 95.568 346.593 292.174 346.593 162.301 0 259.194-125.867 259.194-336.696 0-221.354-94.19-338.356-272.388-338.356m41.369 499.858c-10.955 10.968-25.561 16.3-44.665 16.3-76.11 0-82.158-84.213-82.158-194.3 0-111.527 12.293-164.608 82.158-164.608 47.662 0 73.912 56.706 73.912 159.667l.007 12.101c.082 72.712.164 141.395-29.254 170.84M6055.516 6075.286h-187.118c-43.41-196.776-2.935-486.063-2.519-488.977a5.243 5.243 0 0 0-5.187-5.986h-187.807a5.24 5.24 0 0 0-3.816 1.644 5.28 5.28 0 0 0-1.42 3.911c20.811 347.604 10.635 621.603 10.532 624.326a5.22 5.22 0 0 0 1.632 4.013 5.26 5.26 0 0 0 4.095 1.413c91.678-8.655 368.762-5.276 371.54-5.242h.068a5.25 5.25 0 0 0 3.686-1.515 5.24 5.24 0 0 0 1.556-3.727v-124.618a5.243 5.243 0 0 0-5.242-5.242"/></g><g fill="#6e4e37"><path d="M4030.822 6304.903h232.674l-21.582 59.985h-145.657l-16.07 44.657h135.13l-20.619 57.314h-135.123l-19.921 55.384h149.882l-22.888 63.634h-236.893zM4397.367 6304.903h95.642l18.643 86.435 79.484-86.435h94.685l-136.403 136.075 43.58 144.9h-97.558l-23.015-90.28-87.962 90.28h-96.982l149.588-146.434zM4823.529 6304.903h144.324q47.148-.001 62.556 22.42c10.272 14.952 10.453 36.22.523 63.828-10.206 28.358-26.705 50.53-49.513 66.507q-34.202 23.954-86.716 23.952h-47.53l-37.506 104.267h-87.205zm44.115 119.788h21.273c16.741 0 29.538-2.905 38.41-8.724 8.859-5.813 14.926-13.258 18.187-22.332 3.174-8.813 2.92-16.292-.75-22.42-3.676-6.132-13.62-9.2-29.845-9.2h-24.73zM5109.519 6585.877l101.066-280.974h144.706q40.248-.002 59.04 6.897c12.529 4.6 20.893 13.124 25.105 25.58 4.211 12.468 3.1 27.641-3.342 45.528-5.605 15.589-13.767 29.034-24.482 40.344-10.72 11.304-23.155 20.47-37.318 27.496-9.02 4.485-20.517 8.182-34.492 11.121 9.107 3.456 15.395 6.911 18.884 10.36 2.356 2.303 5.209 7.231 8.564 14.771q5.032 11.32 5.886 17.458l12.763 81.42h-98.107l-15.528-85.867c-1.882-11.115-4.52-18.334-7.929-21.655q-7.041-6.521-18.923-6.523h-7.667l-41.021 114.044zm147.317-167.131h36.615c3.95 0 12.08-1.279 24.374-3.837q9.25-1.72 17.263-8.813c5.337-4.727 9.114-10.158 11.317-16.29 3.26-9.075 2.892-16.032-1.112-20.893-3.998-4.849-13.928-7.286-29.772-7.286h-38.141zM5616.625 6304.903h232.674l-21.582 59.985H5682.06l-16.072 44.657h135.13l-20.618 57.314h-135.123l-19.921 55.384h149.882l-22.888 63.634h-236.893zM5919.563 6492.92l84.466-5.176c-3.04 13.412-3.074 23.644-.1 30.67 4.847 11.37 15.581 17.054 32.188 17.054q18.605 0 31.794-8.718 13.199-8.721 17.337-20.224c2.618-7.285 1.774-13.8-2.552-19.552-4.319-5.745-17.19-11.177-38.597-16.285-35.008-8.559-58.07-19.941-69.192-34.118q-16.885-21.271-5.022-54.246c5.19-14.43 14.283-28.077 27.274-40.914 12.99-12.844 29.202-22.935 48.654-30.287q29.16-11.017 73.056-11.015 53.856 0 74.918 20.028c14.042 13.353 17.618 34.593 10.713 63.728l-83.562 4.788q3.566-18.966-3.77-27.595c-4.9-5.752-13.479-8.632-25.747-8.632-10.09 0-18.468 2.143-25.117 6.422-6.65 4.286-11.083 9.489-13.285 15.622-1.608 4.474-.952 8.498 1.981 12.08 2.753 3.703 11.23 7.152 25.406 10.346 35.015 8.176 59.221 16.452 72.627 24.816 13.406 8.377 21.622 18.756 24.643 31.151 3.013 12.395 1.767 26.256-3.75 41.59-6.482 18.013-17.437 34.627-32.88 49.827q-23.15 22.82-54.225 34.6c-20.718 7.861-44.677 11.786-71.89 11.786q-71.688 0-89.355-27.603c-11.786-18.395-13.795-41.778-6.014-70.143M6305.092 6492.92l84.466-5.176c-3.04 13.412-3.073 23.644-.1 30.67 4.848 11.37 15.582 17.054 32.188 17.054q18.605 0 31.794-8.718 13.198-8.721 17.337-20.224c2.618-7.285 1.774-13.8-2.551-19.552-4.32-5.745-17.19-11.177-38.598-16.285-35.007-8.559-58.07-19.941-69.192-34.118q-16.884-21.271-5.022-54.246c5.19-14.43 14.283-28.077 27.274-40.914 12.99-12.844 29.202-22.935 48.654-30.287q29.161-11.017 73.056-11.015 53.857 0 74.918 20.028c14.042 13.353 17.618 34.593 10.714 63.728l-83.562 4.788q3.564-18.966-3.77-27.595c-4.902-5.752-13.48-8.632-25.748-8.632-10.09 0-18.468 2.143-25.117 6.422-6.65 4.286-11.082 9.489-13.285 15.622-1.608 4.474-.95 8.498 1.982 12.08 2.752 3.703 11.23 7.152 25.405 10.346 35.015 8.176 59.222 16.452 72.628 24.816 13.406 8.377 21.622 18.756 24.642 31.151 3.013 12.395 1.768 26.256-3.75 41.59-6.482 18.013-17.437 34.627-32.878 49.827q-23.152 22.82-54.226 34.6c-20.72 7.861-44.678 11.786-71.892 11.786q-71.686 0-89.355-27.603c-11.785-18.395-13.793-41.778-6.012-70.143"/></g><path fill="#6e4e37" d="M3830.226 6391.774H2016.27l35.014-93.433H3865.24zM3759.962 6579.273H1946.006l35.014-93.434h1813.956z"/><g fill="#fefefe"><path d="M11301.257 5184.778c-.23-1.037 99.843 31.347 151.445 87.919 53.9 56.017 98.144 206.967 96.727 206.085-.279-2.41-128.59-61.283-183.742-126.767-54.896-68.207-79.098-143.579-78.931-143.791-.253-.286 67.025 22.918 124.913 77.81 58.129 54.645 90.578 124.72 90.465 124.431.602.307-40.88-94.787-85.786-136.145-43.47-41.594-114.918-89.877-115.091-89.542M11448.581 5214.32c-.6-.71 89.9-11.638 163.493 28.303 75.406 36.196 208.366 198.234 206.342 199.26-1.017-2.622-137.555-30.208-219.336-79.164-82.577-52.72-145.733-117.965-146.063-118.466-.12.203 55.246 12.43 129.978 51.726 83.439 42.852 171.152 98.878 171.138 99.22-.008.5-66.81-54.067-166.741-108.252-56.028-31.363-138.683-73.092-138.81-72.627M11064.352 5141.026c-.334-.957 99.997 11.406 156.89 59.084 59.152 46.711 121.58 195.12 120.07 194.54-.498-2.239-129.985-34.53-191.883-91.691-61.895-59.804-95.802-133.953-95.656-134.188-.28-.23 67.464 9.814 130.257 54.607 63.014 44.51 103.334 110.67 103.194 110.413.632.184-51.778-90.303-100.37-123.784-47.173-33.978-122.36-69.337-122.502-68.98M10830.254 5143.968c-.43-.88 98.197-8.045 159.54 30.077 63.498 36.741 143.938 179.34 142.367 179.067-.707-2.06-128.922-8.64-196.752-56.371-68.073-50.298-111.532-121.335-111.405-121.597-.3-.174 66.624-3.073 133.345 31.029 66.909 33.782 114.768 94.717 114.601 94.494.65.058-62.28-83.95-113.789-109.112-50.15-25.925-127.804-47.964-127.907-47.587M10596.871 5194.51c-.52-.798 94.315-27.577 159.228-.006 66.915 25.752 165.276 158.895 163.686 158.94-.909-1.882-125.248 17.13-198.17-19.704-73.424-39.32-126.3-105.155-126.205-105.44-.32-.116 64.397-16.127 134.04 6.325 69.802 22.08 124.86 76.255 124.675 76.064.648-.07-72.416-75.418-126.05-91.532-52.358-17.158-131.143-25.05-131.204-24.647M10382.677 5288.384c-.598-.716 88.553-46.043 155.855-29.408 69.096 14.383 183.809 134.906 182.235 135.268-1.09-1.703-119.192 41.269-195.888 16.175-77.455-27.498-138.852-86.3-138.786-86.612-.328-.055 60.902-28.575 132.178-18.069 71.397 10.099 132.739 56.326 132.533 56.17.64-.204-81.34-65.174-136.1-72.033-53.61-8.172-132.012-1.92-132.027-1.49M10185.281 5425.14c-.672-.634 80.836-64.025 149.347-59.032 70.038 2.302 199.662 106.765 198.138 107.448-1.263-1.523-110.668 64.542-189.84 52.365-80.173-14.504-149.245-64.293-149.215-64.631-.33.003 56.075-40.813 127.698-42.89 71.694-2.524 138.436 34.377 138.212 34.256.611-.334-89.11-52.96-143.998-50.087-53.889 1.28-130.367 22.118-130.342 22.57M11302.647 5168.1c.28-.636 99.172 28.152 164.95 24.768 63.946-7.81 183.247-69.11 184.484-67.22 1.006-2.28-164.834-94.338-245.782-70.457-80.422 20.36-114.082 82.952-114.2 82.417.225.075 68.948 13.856 141.674 11.225 72.536-3.343 136.92-23.06 137.043-23.072-.525-.772-82.592 33.468-136.279 36.932-54.903 1.063-132.047 4.913-131.89 5.408M11063.33 5123.197c.217-.675 98.899 8.244 160.994-10.47 59.835-22.598 164.604-115.9 166.024-114.333.792-2.332-169.523-59.398-243.742-16.623-74.04 39.335-97.522 112.13-97.691 111.64.229.028 68.053-.13 137.034-19.329 68.724-19.843 127.146-55.947 127.269-55.984-.6-.635-73.878 54.74-124.605 70.391-52.18 13.578-125.489 34.26-125.284 34.708M10826.715 5125.485c.153-.708 96.684-11.102 153.635-43.861 54.314-36.102 141.457-157.247 143.027-156.012.559-2.391-170.814-25.175-236.476 34.676-65.814 56.491-78.162 137.298-78.38 136.852.235-.026 65.789-13.62 129.431-48.096 63.317-35.059 114.206-85.724 114.321-85.785-.66-.497-63.102 73.482-109.707 100.356-48.252 25.133-116.1 61.465-115.851 61.87M10590.69 5175.882c.072-.744 92.381-30.446 142.607-76.318 47.26-48.643 113.452-194.077 115.145-193.191.308-2.45-168.605 9.332-223.697 84.85-55.592 72.238-55.697 158.982-55.963 158.579.229-.076 62.051-26.994 118.627-75.851 56.195-49.374 97.854-113.098 97.964-113.191-.706-.355-50.132 90.118-91.335 127.528-43.03 36.02-103.636 87.234-103.349 87.594M10373.938 5270.138c-.004-.784 86.244-48.65 128.68-105.913 39.203-59.472 82.791-224.16 84.56-223.61.054-2.512-163.03 42.103-206.326 130.928-44.138 85.624-31.855 175.845-32.158 175.485.216-.126 57.059-39.465 105.383-100.943 47.89-61.925 79.347-136.434 79.444-136.548-.734-.213-35.958 103.624-70.902 150.258-36.898 45.588-89.005 110.03-88.68 110.343M10174.05 5407.794c-.097-.822 78.18-66.29 111.683-133.613 30.062-68.963 49.226-248.574 51.037-248.37-.214-2.573-154.054 74.157-184.223 174.398-31.343 97.127-6.389 188.533-6.727 188.22.199-.182 50.752-51.436 89.541-124.2 38.316-73.15 58.524-156.529 58.61-156.673-.752-.069-20.486 114.498-48.238 169.357-29.795 54.162-72.04 130.616-71.683 130.88M7627.11 5813.938c-17.5-10.995-31.32-19.686-34.875-23.237-5.217-5.216-6.892-11.68-4.72-18.2 4.456-13.359 22.918-23.586 49.387-27.37 68.86-9.8 168.538 60.769 169.536 61.486a4.97 4.97 0 0 0 5.152.374 4.96 4.96 0 0 0 2.693-4.41V5678.79a4.95 4.95 0 0 0-1.588-3.635c-87.293-80.868-280.125-65.734-360.332 4.559-25.948 22.746-39.824 50.206-41.248 81.617-2.27 50.143 28.167 96.139 46.507 115.405 25.659 26.963 57.286 44.854 87.871 62.144 35.847 20.274 69.708 39.424 91.254 71.249 9.907 14.643 11.8 28.583 5.185 38.254-9.747 14.25-36.519 17.982-71.646 9.983-77.792-17.724-136.821-69.996-137.409-70.525a4.95 4.95 0 0 0-5.33-.834 4.95 4.95 0 0 0-2.937 4.527v144.265c0 1.394.587 2.725 1.617 3.668 26.149 23.838 112.609 57.54 208.008 57.54 20.545 0 41.51-1.562 62.367-5.126 51.191-8.736 90.318-33.18 113.145-70.68 22.957-37.713 27.58-86.201 12.678-133.038-20.47-64.34-134.21-135.82-195.315-174.224M8216.418 5586.034c-.437-2.472-2.664-4.326-5.152-4.094-89.386 4.85-195.77-1.161-196.839-1.225a4.98 4.98 0 0 0-4.7 2.699c-31.767 62.311-162.8 578.624-168.362 600.57a4.96 4.96 0 0 0 .936 4.32c.972 1.213 2.48 1.833 4.013 1.86 42.265-1.228 168.859 2.414 170.137 2.453h.145a4.96 4.96 0 0 0 4.914-4.327l9.34-72.378c58.115-9.665 120.418-2.86 135.07-1.014l19.984 74.05a4.94 4.94 0 0 0 2.357 3.029 4.96 4.96 0 0 0 3.81.445c45.272-13.106 191.843-6.017 193.319-5.945 1.723.122 3.499-.808 4.45-2.332a4.96 4.96 0 0 0 .134-5.023c-100.194-181.068-172.836-588.988-173.556-593.088m-68.737 400.417-84.11-1.065c7.048-25.219 32.893-118.723 44.296-173.902zM8894.357 5744.595c0-108.019-126.209-154.751-190.59-154.751H8419.44a4.96 4.96 0 0 0-4.028 2.066 4.97 4.97 0 0 0-.669 4.48c.549 1.629 54.241 167.207 5.63 589.15a4.97 4.97 0 0 0 1.295 3.944c.984 1.053 2.344 1.654 3.835 1.577 1.376-.053 139.214-5.624 238.91 1.504 10.117.723 19.921 1.084 29.4 1.084 104.063 0 169.327-43.381 189.484-126.536 24.05-99.212-.056-149.972-44.816-193.49 15.994-9.91 55.875-43.22 55.875-129.028m-296.388 210.258c21.827-2.699 76.546-6.437 105.175 18.388 11.615 10.073 17.503 23.941 17.503 41.226 0 10.57-3.771 18.905-11.529 25.49-27.382 23.251-93.87 16.187-111.15 13.895zm97.148-140.87c-27.333 24.716-81.329 23.613-97.148 22.721v-109.78c15.241-2.454 70.354-9.434 97.697 12.938 10.509 8.6 15.62 20.35 15.62 35.931 0 15.638-5.44 28.493-16.169 38.19M9175.957 5564.147c-175.114 0-263.905 104.538-263.905 310.71 0 220.62 90.408 327.864 276.386 327.864 153.528 0 245.189-119.066 245.189-318.509 0-209.387-89.1-320.065-257.67-320.065m-3.118 148.753c45.086 0 69.919 53.634 69.919 151.031l.01 11.448c.077 68.782.15 133.755-27.673 161.608-10.364 10.376-24.188 15.419-42.256 15.419-71.994 0-77.717-79.655-77.717-183.793 0-105.5 11.628-155.713 77.717-155.713M10298.807 6041.604h-255.694c-129.37 0-194.82-22.966-245.879-87.242 30.328-11.396 151.22-67.568 151.22-238.202 0-81.708-36.357-144.368-105.145-181.197-50.503-27.047-105.41-32.967-122.301-32.967-23.01 0-253.44 3.286-255.764 3.318a4.94 4.94 0 0 0-3.496 1.518 4.97 4.97 0 0 0-1.392 3.544c.117 5.527 11.503 554.026 1.676 673.588a4.96 4.96 0 0 0 1.469 3.946 4.95 4.95 0 0 0 3.968 1.394c1.155-.11 116.16-11.44 169.636-1.71a5.07 5.07 0 0 0 4.152-1.15 4.98 4.98 0 0 0 1.685-3.971l-9.71-200.683h29.493c10.007 27.085 82.244 205.88 242.58 205.88h393.502a4.96 4.96 0 0 0 4.959-4.959v-136.149a4.96 4.96 0 0 0-4.96-4.958m-534.61-313.822c0 20.83-7 37.468-20.81 49.457-32.134 27.88-92.278 24.109-108.741 22.495v-145.511c16.54-1.447 76.555-4.43 108.67 23.773 13.856 12.17 20.88 28.918 20.88 49.786"/><path d="M10131.743 5986.115c34.259 10.621 72.017 15.2 108.8 15.2 61.886 0 121.003-12.966 155.997-31.922a4.95 4.95 0 0 0 2.595-4.358v-131.172a4.955 4.955 0 0 0-6.824-4.59c-1.693.678-169.188 67.968-229.532 27.369-12.95-8.716-19.801-21.642-20.854-39.405h260.554a4.954 4.954 0 0 0 4.895-4.17c.214-1.31 5.088-32.42 1.976-73.437-2.887-38.055-13.56-91.91-48.018-132.328-33.374-39.146-82.65-58.994-146.467-58.994-122.378 0-180.848 53.61-208.347 98.586-41.193 67.368-40.67 160.233 1.369 242.36 23.605 46.113 65.275 78.7 123.856 96.861m16.736-255.17c.69-32.005 8.833-63.132 54.757-63.132 11.474 0 20.274 3.61 26.911 11.034 13.495 15.089 13.773 41.645 13.301 52.099zM10741.54 5584.79c-.434-2.462-2.434-4.25-5.146-4.096-89.417 4.836-195.777-1.168-196.841-1.225-1.963-.072-3.81.949-4.701 2.698-31.773 62.312-162.802 578.625-168.362 600.571a4.93 4.93 0 0 0 .938 4.32c.968 1.207 2.394 1.723 4.009 1.859 42.284-1.22 168.864 2.415 170.137 2.454h.14a4.966 4.966 0 0 0 4.922-4.327l9.336-72.384c58.122-9.665 120.422-2.861 135.078-1.008l19.983 74.051a4.94 4.94 0 0 0 2.35 3.027 4.93 4.93 0 0 0 3.815.446c45.261-13.1 191.845-6.017 193.317-5.946 1.789.168 3.5-.8 4.455-2.331a4.96 4.96 0 0 0 .129-5.024c-100.194-181.067-172.836-588.986-173.559-593.086m-68.736 400.415-84.104-1.065c7.044-25.22 32.89-118.717 44.292-173.902zM11577.607 5565.393c-175.114 0-263.905 104.538-263.905 310.71 0 220.62 90.405 327.864 276.387 327.864 153.53 0 245.188-119.066 245.188-318.503 0-209.393-89.101-320.07-257.67-320.07m39.133 472.846c-10.362 10.376-24.178 15.42-42.25 15.42-71.998 0-77.719-79.662-77.719-183.8 0-105.5 11.63-155.713 77.718-155.713 45.086 0 69.92 53.64 69.92 151.039l.005 11.447c.077 68.781.154 133.754-27.674 161.607M11309.202 6056.357h-177.008c-41.063-186.143-2.775-459.798-2.381-462.555a4.957 4.957 0 0 0-4.907-5.662h-177.659c-1.37 0-2.674.561-3.61 1.555a5 5 0 0 0-1.343 3.7c19.686 328.82 10.06 588.013 9.963 590.59a4.94 4.94 0 0 0 1.543 3.796 4.98 4.98 0 0 0 3.874 1.336c86.724-8.186 348.835-4.992 351.464-4.959h.064a4.966 4.966 0 0 0 4.96-4.958v-117.884a4.96 4.96 0 0 0-4.96-4.96"/></g><g fill="#fefefe"><path d="M9393.916 6273.566h220.1l-20.415 56.744h-137.787l-15.202 42.243h127.828l-19.503 54.217h-127.822l-18.844 52.392h141.783l-21.652 60.195h-224.091zM9740.653 6273.566h90.475l17.635 81.764 75.19-81.764h89.568l-129.033 128.722 41.225 137.07h-92.286l-21.77-85.401-83.21 85.4h-91.74l141.503-138.52zM10143.787 6273.566h136.525q44.602 0 59.176 21.207c9.717 14.145 9.888 34.264.494 60.38-9.653 26.826-25.26 47.8-46.836 62.913-21.568 15.107-48.915 22.659-82.03 22.659h-44.962l-35.48 98.632h-82.491zm41.732 113.316h20.124c15.836 0 27.941-2.75 36.334-8.254 8.38-5.498 14.119-12.541 17.205-21.125 3.002-8.336 2.76-15.411-.71-21.208-3.478-5.802-12.884-8.703-28.233-8.703h-23.392zM10414.322 6539.357l95.606-265.79h136.886c25.382 0 43.998 2.171 55.851 6.523 11.85 4.352 19.763 12.416 23.748 24.198 3.983 11.795 2.933 26.148-3.162 43.067q-7.954 22.119-23.157 38.166c-10.143 10.692-21.906 19.364-35.302 26.008-8.533 4.244-19.41 7.74-32.629 10.522 8.614 3.268 14.563 6.537 17.863 9.8 2.23 2.178 4.928 6.84 8.102 13.973q4.761 10.708 5.567 16.513l12.074 77.02h-92.805l-14.69-81.225c-1.78-10.515-4.276-17.344-7.5-20.486q-6.66-6.168-17.901-6.17h-7.253l-38.805 107.881zm139.357-158.1h34.637c3.737 0 11.427-1.21 23.058-3.63 5.834-1.083 11.274-3.863 16.33-8.336 5.048-4.472 8.621-9.609 10.704-15.411 3.085-8.583 2.737-15.165-1.05-19.763-3.783-4.586-13.176-6.892-28.164-6.892h-36.08zM10894.026 6273.566h220.102l-20.416 56.744h-137.786l-15.202 42.243h127.829l-19.504 54.217h-127.822l-18.845 52.392h141.783l-21.651 60.195h-224.092zM11180.595 6451.423l79.902-4.896c-2.876 12.687-2.907 22.367-.095 29.011 4.586 10.756 14.74 16.134 30.45 16.134q17.596 0 30.075-8.247c8.323-5.498 13.79-11.878 16.4-19.13 2.477-6.892 1.678-13.055-2.414-18.496-4.086-5.436-16.26-10.572-36.512-15.405-33.115-8.096-54.931-18.865-65.453-32.275q-15.972-20.121-4.75-51.314c4.91-13.65 13.511-26.56 25.8-38.703 12.288-12.15 27.624-21.696 46.025-28.652q27.586-10.422 69.108-10.42 50.947 0 70.87 18.947c13.283 12.63 16.666 32.723 10.135 60.284l-79.047 4.529c2.249-11.958 1.057-20.662-3.567-26.103-4.636-5.442-12.75-8.166-24.355-8.166-9.546 0-17.47 2.027-23.76 6.075-6.29 4.054-10.484 8.976-12.568 14.779-1.52 4.23-.9 8.038 1.876 11.426 2.602 3.503 10.622 6.765 24.032 9.787 33.123 7.735 56.022 15.563 68.702 23.475 12.682 7.925 20.454 17.743 23.312 29.468 2.85 11.725 1.672 24.837-3.548 39.343-6.132 17.04-16.495 32.755-31.102 47.134q-21.9 21.587-51.296 32.73c-19.598 7.436-42.263 11.148-68.006 11.148q-67.813 0-84.526-26.11c-11.15-17.4-13.05-39.52-5.688-66.353M11545.291 6451.423l79.902-4.896c-2.876 12.687-2.908 22.367-.094 29.011 4.586 10.756 14.739 16.134 30.449 16.134 11.73 0 21.758-2.75 30.075-8.247 8.324-5.498 13.79-11.878 16.4-19.13 2.477-6.892 1.678-13.055-2.413-18.496q-6.132-8.155-36.512-15.405c-33.116-8.096-54.932-18.865-65.453-32.275q-15.972-20.121-4.75-51.314c4.909-13.65 13.51-26.56 25.798-38.703 12.29-12.15 27.625-21.696 46.027-28.652q27.584-10.422 69.108-10.42 50.946 0 70.87 18.947c13.282 12.63 16.665 32.723 10.134 60.284l-79.047 4.529c2.25-11.958 1.059-20.662-3.566-26.103-4.637-5.442-12.751-8.166-24.356-8.166-9.546 0-17.47 2.027-23.76 6.075-6.29 4.054-10.484 8.976-12.567 14.779-1.521 4.23-.9 8.038 1.875 11.426 2.603 3.503 10.622 6.765 24.032 9.787 33.123 7.735 56.022 15.563 68.703 23.475 12.681 7.925 20.454 17.743 23.311 29.468 2.85 11.725 1.672 24.837-3.547 39.343-6.133 17.04-16.495 32.755-31.102 47.134q-21.9 21.587-51.297 32.73c-19.598 7.436-42.263 11.148-68.005 11.148q-67.815 0-84.527-26.11c-11.148-17.4-13.048-39.52-5.688-66.353"/></g><path fill="#fefefe" d="M9204.16 6355.743H7488.224l33.121-88.385h1715.936zM9137.692 6533.11H7421.756l33.122-88.385h1715.936z"/><g fill="#231f20"><path d="M11397.118 1603.92c-.245-1.096 105.545 33.137 160.095 92.94 56.978 59.219 103.75 218.79 102.252 217.859-.294-2.549-135.935-64.784-194.237-134.009-58.033-72.104-83.617-151.78-83.44-152.006-.267-.302 70.854 24.228 132.047 82.255 61.45 57.767 95.753 131.845 95.635 131.54.635.324-43.216-100.202-90.687-143.922-45.953-43.971-121.483-95.011-121.665-94.658M11552.857 1635.149c-.634-.75 95.036-12.304 172.832 29.92 79.714 38.264 220.269 209.557 218.13 210.643-1.075-2.773-145.414-31.934-231.866-83.687-87.295-55.732-154.058-124.704-154.406-125.233-.126.214 58.401 13.14 137.403 54.682 88.204 45.299 180.928 104.525 180.913 104.885-.009.53-70.627-57.154-176.265-114.434-59.229-33.155-146.606-77.267-146.74-76.776M11146.679 1557.668c-.354-1.012 105.709 12.058 165.852 62.46 62.53 49.379 128.526 206.266 126.93 205.651-.526-2.365-137.411-36.503-202.846-96.928-65.43-63.22-101.273-141.604-101.118-141.853-.296-.243 71.316 10.374 137.696 57.727 66.614 47.051 109.238 116.99 109.09 116.719.668.195-54.737-95.461-106.103-130.854-49.87-35.92-129.35-73.298-129.501-72.922M10899.208 1560.779c-.453-.93 103.808-8.506 168.653 31.794 67.126 38.84 152.162 189.585 150.501 189.296-.748-2.178-136.285-9.135-207.99-59.591-71.964-53.171-117.905-128.266-117.77-128.544-.318-.183 70.428-3.248 140.96 32.803 70.733 35.71 121.326 100.127 121.15 99.892.686.061-65.838-88.745-120.288-115.346-53.016-27.405-135.106-50.704-135.216-50.304M10652.494 1614.208c-.55-.844 99.702-29.154 168.322-.007 70.739 27.223 174.72 167.972 173.038 168.019-.96-1.99-132.402 18.11-209.49-20.83-77.618-41.565-133.514-111.162-133.414-111.463-.339-.122 68.075-17.048 141.696 6.687 73.79 23.342 131.994 80.61 131.797 80.41.686-.075-76.553-79.727-133.25-96.762-55.348-18.137-138.634-26.48-138.699-26.054M10426.064 1713.444c-.632-.756 93.613-48.673 164.758-31.089 73.044 15.206 194.31 142.613 192.646 142.996-1.152-1.8-126 43.626-207.078 17.1-81.88-29.07-146.784-91.23-146.715-91.56-.347-.059 64.382-30.208 139.73-19.101 75.474 10.674 140.32 59.543 140.103 59.377.676-.214-85.986-68.896-143.875-76.147-56.671-8.64-139.552-2.03-139.569-1.576M10217.394 1858.012c-.71-.67 85.452-67.682 157.877-62.404 74.039 2.433 211.067 112.864 209.456 113.585-1.335-1.61-116.99 68.23-200.683 55.358-84.754-15.333-157.772-67.967-157.74-68.324-.349.003 59.278-43.145 134.992-45.34 75.79-2.668 146.346 36.34 146.107 36.213.647-.353-94.199-55.985-152.222-52.949-56.966 1.354-137.815 23.382-137.787 23.86M11398.588 1586.29c.296-.673 104.836 29.76 174.372 26.182 67.599-8.256 193.714-73.058 195.021-71.06 1.064-2.41-174.249-99.727-259.822-74.482-85.015 21.522-120.598 87.69-120.721 87.125.237.08 72.884 14.648 149.766 11.867 76.679-3.534 144.741-24.377 144.87-24.39-.554-.817-87.31 35.38-144.062 39.041-58.04 1.123-139.591 5.194-139.424 5.717M11145.598 1538.82c.23-.713 104.548 8.716 170.191-11.067 63.253-23.89 174.007-122.522 175.508-120.864.837-2.466-179.206-62.791-257.665-17.572-78.27 41.58-103.092 118.535-103.272 118.016.242.03 71.94-.138 144.863-20.432 72.648-20.977 134.408-59.144 134.538-59.184-.633-.67-78.098 57.869-131.722 74.413-55.16 14.354-132.657 36.217-132.441 36.69M10895.468 1541.24c.163-.749 102.208-11.736 162.41-46.367 57.417-38.164 149.537-166.23 151.197-164.924.592-2.528-180.57-26.614-249.983 36.656-69.573 59.718-82.627 145.142-82.859 144.67.251-.026 69.55-14.398 136.827-50.844 66.932-37.06 120.73-90.62 120.851-90.685-.7-.525-66.708 77.68-115.974 106.09-51.01 26.568-122.732 64.975-122.47 65.404M10645.96 1594.516c.076-.787 97.658-32.185 150.753-80.679 49.962-51.421 119.933-205.163 121.724-204.227.324-2.589-178.238 9.866-236.476 89.699-58.768 76.363-58.88 168.063-59.16 167.637.242-.082 65.595-28.536 125.404-80.185 59.403-52.193 103.442-119.559 103.559-119.656-.747-.376-52.995 95.266-96.553 134.812-45.487 38.078-109.555 92.218-109.251 92.599M10416.827 1694.155c-.005-.828 91.17-51.43 136.03-111.963 41.442-62.868 87.522-236.963 89.39-236.383.059-2.656-172.342 44.507-218.112 138.407-46.66 90.515-33.675 185.89-33.994 185.51.228-.134 60.319-41.72 111.402-106.71 50.627-65.463 83.88-144.227 83.982-144.349-.776-.224-38.011 109.544-74.952 158.842-39.006 48.192-94.089 116.316-93.746 116.646M10205.52 1839.675c-.102-.869 82.645-70.077 118.064-141.246 31.777-72.901 52.036-262.773 53.951-262.556-.226-2.72-162.854 78.392-194.747 184.359-33.133 102.675-6.753 199.303-7.111 198.972.21-.193 53.652-54.375 94.657-131.295 40.504-77.329 61.867-165.47 61.957-165.623-.795-.072-21.656 121.038-50.992 179.032-31.498 57.255-76.157 138.077-75.778 138.357M7513.09 2269.02c-18.5-11.624-33.11-20.811-36.867-24.564-5.515-5.516-7.286-12.348-4.99-19.242 4.71-14.122 24.227-24.933 52.208-28.932 72.792-10.362 178.166 64.24 179.221 64.998a5.244 5.244 0 0 0 8.292-4.266V2126.15c0-1.461-.607-2.854-1.678-3.843-92.28-85.488-296.127-69.49-380.915 4.819-27.431 24.046-42.1 53.074-43.604 86.28-2.4 53.006 29.776 101.63 49.163 121.996 27.124 28.503 60.559 47.416 92.89 65.695 37.895 21.431 73.691 41.676 96.467 75.318 10.474 15.48 12.473 30.216 5.48 40.44-10.302 15.064-38.604 19.01-75.737 10.553-82.236-18.736-144.637-73.994-145.258-74.554a5.23 5.23 0 0 0-5.635-.88 5.23 5.23 0 0 0-3.105 4.784v152.507c0 1.474.622 2.88 1.71 3.876 27.643 25.2 119.041 60.828 219.89 60.828 21.718 0 43.88-1.652 65.93-5.42 54.115-9.234 95.476-35.075 119.608-74.717 24.268-39.867 29.155-91.125 13.402-140.637-21.64-68.015-141.876-143.579-206.472-184.176M8136.061 2028.098c-.46-2.615-2.816-4.574-5.447-4.328-94.49 5.126-206.952-1.229-208.082-1.297a5.26 5.26 0 0 0-4.969 2.853c-33.58 65.872-172.1 611.678-177.979 634.878a5.24 5.24 0 0 0 .99 4.566c1.027 1.283 2.62 1.938 4.242 1.965 44.679-1.297 178.504 2.553 179.856 2.594h.153a5.24 5.24 0 0 0 5.195-4.573l9.873-76.512c61.435-10.218 127.296-3.024 142.787-1.072l21.124 78.28a5.23 5.23 0 0 0 2.49 3.201 5.24 5.24 0 0 0 4.028.471c47.86-13.855 202.803-6.361 204.363-6.286 1.822.13 3.699-.853 4.706-2.463a5.24 5.24 0 0 0 .14-5.31c-105.917-191.412-182.71-622.633-183.47-626.967m-72.664 423.29-88.914-1.127c7.45-26.66 34.772-125.505 46.826-183.835zM8852.728 2195.715c0-114.189-133.42-163.591-201.48-163.591h-300.565c-1.69 0-3.274.813-4.26 2.184a5.26 5.26 0 0 0-.706 4.737c.58 1.72 57.34 176.757 5.952 622.804a5.25 5.25 0 0 0 1.368 4.17c1.041 1.112 2.478 1.747 4.054 1.665 1.454-.054 147.166-5.945 252.557 1.59 10.696.765 21.06 1.147 31.08 1.147 110.007 0 178.999-45.86 200.307-133.764 25.425-104.879-.057-158.54-47.375-204.543 16.907-10.477 59.068-45.69 59.068-136.399m-313.32 222.27c23.073-2.854 80.918-6.805 111.182 19.438 12.278 10.648 18.504 25.308 18.504 43.58 0 11.173-3.987 19.985-12.187 26.947-28.947 24.578-99.234 17.111-117.5 14.688zm102.697-148.917c-28.895 26.127-85.975 24.96-102.698 24.018v-116.052c16.112-2.594 74.373-9.972 103.28 13.678 11.107 9.092 16.51 21.514 16.51 37.983 0 16.532-5.75 30.12-17.092 40.373M9150.413 2004.959c-185.118 0-278.98 110.51-278.98 328.458 0 233.224 95.572 346.594 292.173 346.594 162.298 0 259.195-125.867 259.195-336.703 0-221.348-94.19-338.349-272.388-338.349m-3.297 157.25c47.662 0 73.913 56.699 73.913 159.66l.01 12.101c.082 72.711.16 141.395-29.254 170.84-10.954 10.968-25.567 16.299-44.669 16.299-76.106 0-82.156-84.205-82.156-194.292 0-111.527 12.292-164.608 82.156-164.608M10337.403 2509.69h-270.299c-136.76 0-205.949-24.278-259.924-92.225 32.058-12.047 159.857-71.427 159.857-251.81 0-86.374-38.433-152.614-111.151-191.547-53.388-28.591-111.432-34.85-129.287-34.85-24.326 0-267.917 3.474-270.374 3.508a5.22 5.22 0 0 0-3.696 1.604 5.24 5.24 0 0 0-1.47 3.747c.122 5.842 12.159 585.674 1.77 712.066a5.25 5.25 0 0 0 1.553 4.17 5.23 5.23 0 0 0 4.194 1.475c1.222-.117 122.796-12.095 179.327-1.81a5.35 5.35 0 0 0 4.389-1.214 5.26 5.26 0 0 0 1.781-4.198l-10.265-212.147h31.178c10.58 28.633 86.942 217.642 256.437 217.642h415.98a5.243 5.243 0 0 0 5.242-5.243v-143.926a5.243 5.243 0 0 0-5.242-5.242m-565.15-331.748c0 22.019-7.398 39.607-21.997 52.283-33.97 29.471-97.549 25.485-114.953 23.779V2100.18c17.486-1.53 80.928-4.682 114.878 25.131 14.647 12.866 22.073 30.571 22.073 52.63"/><path d="M10160.796 2451.032c36.216 11.228 76.13 16.068 115.016 16.068 65.42 0 127.914-13.706 164.908-33.746a5.23 5.23 0 0 0 2.743-4.606v-138.665a5.24 5.24 0 0 0-7.215-4.853c-1.788.716-178.852 71.851-242.642 28.933-13.691-9.215-20.933-22.879-22.046-41.655h275.439a5.24 5.24 0 0 0 5.174-4.41c.224-1.385 5.378-34.27 2.088-77.632-3.051-40.229-14.333-97.16-50.761-139.886-35.28-41.383-87.372-62.364-154.833-62.364-129.37 0-191.18 56.671-220.249 104.217-43.546 71.216-42.993 169.386 1.447 256.205 24.953 48.747 69.004 83.194 130.93 102.394m17.692-269.746c.73-33.833 9.337-66.74 57.886-66.74 12.129 0 21.432 3.817 28.448 11.666 14.265 15.951 14.559 44.023 14.06 55.074zM10805.427 2026.78c-.457-2.6-2.573-4.49-5.44-4.327-94.525 5.112-206.96-1.236-208.086-1.297-2.075-.075-4.026 1.003-4.967 2.853-33.59 65.872-172.104 611.678-177.98 634.877a5.22 5.22 0 0 0 .99 4.567c1.024 1.276 2.532 1.822 4.239 1.965 44.699-1.29 178.51 2.553 179.855 2.594h.15a5.25 5.25 0 0 0 5.202-4.573l9.869-76.52c61.442-10.217 127.3-3.023 142.794-1.065l21.124 78.281a5.23 5.23 0 0 0 2.485 3.2 5.2 5.2 0 0 0 4.033.472c47.847-13.849 202.803-6.361 204.36-6.286 1.89.177 3.699-.847 4.71-2.464a5.25 5.25 0 0 0 .135-5.31c-105.916-191.412-182.709-622.633-183.473-626.967m-72.662 423.29-88.909-1.126c7.447-26.66 34.769-125.499 46.823-183.835zM11689.255 2006.276c-185.12 0-278.983 110.51-278.983 328.458 0 233.224 95.57 346.594 292.176 346.594 162.301 0 259.195-125.867 259.195-336.697 0-221.354-94.192-338.355-272.388-338.355m41.368 499.858c-10.955 10.969-25.561 16.299-44.666 16.299-76.11 0-82.157-84.212-82.157-194.298 0-111.528 12.293-164.608 82.157-164.608 47.662 0 73.913 56.705 73.913 159.666l.006 12.101c.083 72.711.164 141.395-29.253 170.84M11405.517 2525.286h-187.12c-43.409-196.776-2.934-486.063-2.518-488.978a5.244 5.244 0 0 0-5.187-5.986h-187.807a5.24 5.24 0 0 0-3.816 1.645 5.28 5.28 0 0 0-1.42 3.911c20.811 347.604 10.634 621.602 10.532 624.326a5.23 5.23 0 0 0 1.631 4.013 5.26 5.26 0 0 0 4.096 1.413c91.679-8.655 368.762-5.276 371.54-5.242h.069a5.24 5.24 0 0 0 5.241-5.242v-124.618a5.243 5.243 0 0 0-5.241-5.242"/></g><g fill="#231f20"><path d="M9380.821 2754.903h232.675l-21.582 59.985h-145.657l-16.07 44.657h135.13l-20.619 57.313h-135.123l-19.922 55.385h149.883l-22.888 63.634h-236.893zM9747.366 2754.903h95.643l18.642 86.435 79.485-86.435h94.684l-136.402 136.075 43.58 144.9h-97.559l-23.014-90.28-87.962 90.28h-96.982l149.588-146.434zM10173.528 2754.903h144.325q47.148 0 62.556 22.42c10.272 14.952 10.452 36.219.523 63.828-10.205 28.358-26.705 50.53-49.512 66.507-22.8 15.97-51.71 23.952-86.717 23.952h-47.53l-37.505 104.267h-87.205zm44.116 119.79h21.274c16.74 0 29.537-2.907 38.41-8.726 8.859-5.812 14.925-13.259 18.186-22.332 3.174-8.813 2.92-16.292-.75-22.419-3.676-6.134-13.62-9.2-29.845-9.2h-24.73zM10459.519 3035.877l101.065-280.974h144.706q40.249-.001 59.041 6.897c12.53 4.6 20.892 13.125 25.105 25.58 4.211 12.468 3.1 27.642-3.342 45.528-5.605 15.589-13.768 29.034-24.482 40.344-10.72 11.304-23.155 20.471-37.317 27.495-9.02 4.486-20.519 8.183-34.493 11.123 9.107 3.455 15.395 6.91 18.883 10.359 2.357 2.303 5.21 7.231 8.565 14.771q5.032 11.32 5.886 17.458l12.762 81.42h-98.105l-15.53-85.866c-1.88-11.116-4.519-18.335-7.927-21.656-4.694-4.346-11.003-6.523-18.924-6.523h-7.667l-41.021 114.044zm147.317-167.131h36.614c3.951 0 12.08-1.279 24.375-3.837q9.25-1.72 17.263-8.812c5.337-4.728 9.113-10.159 11.316-16.292 3.262-9.074 2.893-16.031-1.111-20.892-3.998-4.849-13.929-7.286-29.772-7.286h-38.141zM10966.625 2754.903h232.674l-21.582 59.985h-145.656l-16.072 44.657h135.131l-20.618 57.313h-135.124l-19.922 55.385h149.883l-22.888 63.634h-236.892zM11269.563 2942.92l84.466-5.176c-3.04 13.412-3.074 23.645-.1 30.669 4.847 11.37 15.582 17.055 32.188 17.055q18.604 0 31.793-8.718 13.2-8.721 17.337-20.223c2.62-7.285 1.774-13.8-2.55-19.553-4.32-5.745-17.19-11.176-38.598-16.285-35.008-8.558-58.07-19.942-69.192-34.118q-16.886-21.272-5.022-54.246c5.19-14.43 14.282-28.077 27.273-40.914 12.99-12.844 29.202-22.935 48.655-30.287q29.16-11.017 73.056-11.015 53.856 0 74.917 20.028c14.042 13.352 17.618 34.592 10.715 63.728l-83.564 4.788c2.378-12.642 1.12-21.843-3.769-27.595-4.901-5.752-13.48-8.631-25.747-8.631-10.09 0-18.468 2.142-25.118 6.421-6.649 4.286-11.081 9.488-13.285 15.622-1.607 4.473-.95 8.498 1.982 12.08 2.752 3.703 11.23 7.152 25.406 10.346 35.014 8.176 59.222 16.453 72.627 24.816 13.406 8.377 21.623 18.756 24.642 31.151 3.014 12.395 1.768 26.256-3.75 41.59-6.482 18.013-17.437 34.627-32.878 49.827q-23.15 22.82-54.226 34.6c-20.718 7.861-44.677 11.785-71.891 11.785q-71.686 0-89.355-27.602c-11.784-18.395-13.794-41.778-6.013-70.143M11655.09 2942.92l84.468-5.176c-3.04 13.412-3.074 23.645-.1 30.669 4.847 11.37 15.581 17.055 32.188 17.055q18.604 0 31.794-8.718 13.2-8.721 17.336-20.223c2.619-7.285 1.775-13.8-2.551-19.553-4.319-5.745-17.189-11.176-38.597-16.285-35.008-8.558-58.07-19.942-69.192-34.118q-16.885-21.272-5.023-54.246c5.19-14.43 14.283-28.077 27.274-40.914 12.992-12.844 29.203-22.935 48.655-30.287q29.162-11.017 73.056-11.015 53.856 0 74.917 20.028c14.043 13.352 17.619 34.592 10.714 63.728l-83.561 4.788c2.377-12.642 1.117-21.843-3.77-27.595-4.902-5.752-13.48-8.631-25.747-8.631-10.092 0-18.469 2.142-25.118 6.421-6.65 4.286-11.082 9.488-13.285 15.622-1.608 4.473-.951 8.498 1.982 12.08 2.751 3.703 11.23 7.152 25.405 10.346 35.015 8.176 59.221 16.453 72.628 24.816 13.405 8.377 21.622 18.756 24.642 31.151 3.013 12.395 1.768 26.256-3.75 41.59-6.482 18.013-17.437 34.627-32.879 49.827q-23.15 22.82-54.226 34.6c-20.717 7.861-44.677 11.785-71.891 11.785q-71.686 0-89.354-27.602c-11.786-18.395-13.795-41.778-6.014-70.143"/></g><path fill="#231f20" d="M9180.227 2841.775H7366.27l35.014-93.434H9215.24zM9109.962 3029.273H7296.006l35.014-93.434h1813.956z"/><g fill="#d5ae5c"><path d="M11397.118-1946.081c-.245-1.096 105.545 33.138 160.095 92.941 56.978 59.218 103.75 218.79 102.252 217.859-.294-2.548-135.935-64.784-194.237-134.009-58.033-72.104-83.617-151.781-83.44-152.006-.267-.302 70.854 24.228 132.047 82.255 61.45 57.767 95.753 131.846 95.635 131.54.635.324-43.216-100.201-90.687-143.923-45.953-43.97-121.483-95.01-121.665-94.657M11552.857-1914.85c-.634-.752 95.036-12.304 172.832 29.92 79.714 38.263 220.269 209.557 218.13 210.642-1.075-2.773-145.414-31.934-231.866-83.687-87.295-55.732-154.058-124.704-154.406-125.233-.126.214 58.401 13.14 137.403 54.682 88.204 45.298 180.928 104.525 180.913 104.885-.009.53-70.627-57.154-176.265-114.434-59.229-33.155-146.606-77.268-146.74-76.776M11146.679-1992.331c-.354-1.013 105.709 12.057 165.852 62.458 62.53 49.38 128.526 206.267 126.93 205.652-.526-2.366-137.411-36.503-202.846-96.927-65.43-63.221-101.273-141.606-101.118-141.855-.296-.242 71.316 10.375 137.696 57.728 66.614 47.051 109.238 116.99 109.09 116.72.668.194-54.737-95.462-106.103-130.855-49.87-35.92-129.35-73.298-129.501-72.921M10899.208-1989.222c-.453-.93 103.808-8.505 168.653 31.795 67.126 38.841 152.162 189.585 150.501 189.296-.748-2.178-136.285-9.135-207.99-59.59-71.964-53.172-117.905-128.267-117.77-128.545-.318-.183 70.428-3.248 140.96 32.802 70.733 35.712 121.326 100.128 121.15 99.893.686.061-65.838-88.745-120.288-115.346-53.016-27.405-135.106-50.704-135.216-50.305M10652.494-1935.793c-.55-.843 99.702-29.152 168.322-.006 70.739 27.223 174.72 167.972 173.038 168.019-.96-1.99-132.402 18.11-209.49-20.83-77.618-41.566-133.514-111.161-133.414-111.463-.339-.122 68.075-17.048 141.696 6.686 73.79 23.343 131.994 80.612 131.797 80.41.686-.074-76.553-79.726-133.25-96.76-55.348-18.138-138.634-26.482-138.699-26.056M10426.064-1836.556c-.632-.756 93.613-48.673 164.758-31.089 73.044 15.206 194.31 142.613 192.646 142.996-1.152-1.8-126 43.626-207.078 17.1-81.88-29.07-146.784-91.231-146.715-91.56-.347-.059 64.382-30.208 139.73-19.102 75.474 10.676 140.32 59.544 140.103 59.378.676-.215-85.986-68.896-143.875-76.147-56.671-8.64-139.552-2.03-139.569-1.576M10217.394-1691.988c-.71-.67 85.452-67.683 157.877-62.404 74.039 2.433 211.067 112.864 209.456 113.585-1.335-1.609-116.99 68.23-200.683 55.358-84.754-15.332-157.772-67.967-157.74-68.324-.349.002 59.278-43.145 134.992-45.34 75.79-2.668 146.346 36.34 146.107 36.213.647-.353-94.199-55.985-152.222-52.949-56.966 1.354-137.815 23.381-137.787 23.86M11398.588-1963.71c.296-.673 104.836 29.76 174.372 26.182 67.599-8.256 193.714-73.058 195.021-71.06 1.064-2.411-174.249-99.727-259.822-74.482-85.015 21.522-120.598 87.69-120.721 87.126.237.079 72.884 14.646 149.766 11.866 76.679-3.534 144.741-24.377 144.87-24.39-.554-.817-87.31 35.38-144.062 39.041-58.04 1.123-139.591 5.195-139.424 5.716M11145.598-2011.18c.23-.713 104.548 8.716 170.191-11.067 63.253-23.89 174.007-122.522 175.508-120.864.837-2.466-179.206-62.791-257.665-17.573-78.27 41.582-103.092 118.536-103.272 118.017.242.03 71.94-.138 144.863-20.433 72.648-20.976 134.408-59.143 134.538-59.182-.633-.671-78.098 57.868-131.722 74.412-55.16 14.354-132.657 36.217-132.441 36.69M10895.468-2008.76c.163-.749 102.208-11.736 162.41-46.367 57.417-38.164 149.537-166.23 151.197-164.924.592-2.528-180.57-26.614-249.983 36.656-69.573 59.718-82.627 145.142-82.859 144.67.251-.027 69.55-14.398 136.827-50.843 66.932-37.06 120.73-90.62 120.851-90.686-.7-.525-66.708 77.68-115.974 106.09-51.01 26.568-122.732 64.975-122.47 65.404M10645.96-1955.484c.076-.787 97.658-32.186 150.753-80.678 49.962-51.422 119.933-205.163 121.724-204.228.324-2.589-178.238 9.866-236.476 89.699-58.768 76.364-58.88 168.062-59.16 167.636.242-.08 65.595-28.535 125.404-80.184 59.403-52.194 103.442-119.559 103.559-119.657-.747-.375-52.995 95.267-96.553 134.813-45.487 38.078-109.555 92.219-109.251 92.599M10416.827-1855.845c-.005-.828 91.17-51.43 136.03-111.964 41.442-62.867 87.522-236.962 89.39-236.381.059-2.657-172.342 44.506-218.112 138.406-46.66 90.514-33.675 185.89-33.994 185.51.228-.134 60.319-41.72 111.402-106.71 50.627-65.462 83.88-144.228 83.982-144.348-.776-.225-38.011 109.543-74.952 158.842-39.006 48.191-94.089 116.315-93.746 116.645M10205.52-1710.325c-.102-.87 82.645-70.077 118.064-141.246 31.777-72.902 52.036-262.773 53.951-262.557-.226-2.72-162.854 78.394-194.747 184.36-33.133 102.675-6.753 199.303-7.111 198.971.21-.192 53.652-54.374 94.657-131.294 40.504-77.329 61.867-165.47 61.957-165.623-.795-.072-21.656 121.038-50.992 179.031-31.498 57.256-76.157 138.078-75.778 138.358M7513.09-1280.98c-18.5-11.624-33.11-20.811-36.867-24.565-5.515-5.515-7.286-12.347-4.99-19.24 4.71-14.122 24.227-24.934 52.208-28.934 72.792-10.36 178.166 64.241 179.221 65a5.244 5.244 0 0 0 8.292-4.267v-130.864a5.23 5.23 0 0 0-1.678-3.842c-92.28-85.488-296.127-69.49-380.915 4.819-27.431 24.046-42.1 53.074-43.604 86.28-2.4 53.005 29.776 101.63 49.163 121.996 27.124 28.503 60.559 47.416 92.89 65.695 37.895 21.431 73.691 41.675 96.467 75.318 10.474 15.48 12.473 30.216 5.48 40.44-10.302 15.064-38.604 19.01-75.737 10.552-82.236-18.735-144.637-73.994-145.258-74.554a5.24 5.24 0 0 0-5.635-.88 5.23 5.23 0 0 0-3.105 4.785v152.507c0 1.474.622 2.88 1.71 3.877 27.643 25.199 119.041 60.827 219.89 60.827 21.718 0 43.88-1.652 65.93-5.42 54.115-9.234 95.476-35.074 119.608-74.717 24.268-39.867 29.155-91.125 13.402-140.637-21.64-68.014-141.876-143.579-206.472-184.176M8136.061-1521.903c-.46-2.614-2.816-4.573-5.447-4.327-94.49 5.126-206.952-1.229-208.082-1.297a5.27 5.27 0 0 0-4.969 2.853c-33.58 65.872-172.1 611.678-177.979 634.877a5.24 5.24 0 0 0 .99 4.567c1.027 1.283 2.62 1.938 4.242 1.965 44.679-1.297 178.504 2.553 179.856 2.594h.153a5.24 5.24 0 0 0 5.195-4.573l9.873-76.513c61.435-10.218 127.296-3.023 142.787-1.071l21.124 78.28a5.23 5.23 0 0 0 2.49 3.201 5.24 5.24 0 0 0 4.028.471c47.86-13.855 202.803-6.361 204.363-6.286 1.822.13 3.699-.853 4.706-2.464a5.24 5.24 0 0 0 .14-5.31c-105.917-191.412-182.71-622.632-183.47-626.967m-72.664 423.29-88.914-1.125c7.45-26.66 34.772-125.506 46.826-183.836zM8852.728-1354.284c0-114.19-133.42-163.592-201.48-163.592h-300.565c-1.69 0-3.274.813-4.26 2.185a5.26 5.26 0 0 0-.706 4.736c.58 1.72 57.34 176.758 5.952 622.804a5.25 5.25 0 0 0 1.368 4.17c1.041 1.113 2.478 1.748 4.054 1.666 1.454-.055 147.166-5.946 252.557 1.59 10.696.764 21.06 1.146 31.08 1.146 110.007 0 178.999-45.86 200.307-133.764 25.425-104.879-.057-158.54-47.375-204.543 16.907-10.477 59.068-45.69 59.068-136.398m-313.32 222.268c23.073-2.853 80.918-6.804 111.182 19.439 12.278 10.647 18.504 25.308 18.504 43.58 0 11.173-3.987 19.984-12.187 26.946-28.947 24.58-99.234 17.112-117.5 14.689zm102.697-148.917c-28.895 26.128-85.975 24.961-102.698 24.019v-116.052c16.112-2.594 74.373-9.972 103.28 13.678 11.107 9.092 16.51 21.514 16.51 37.983 0 16.532-5.75 30.121-17.092 40.372M9150.413-1545.041c-185.118 0-278.98 110.51-278.98 328.458 0 233.224 95.572 346.594 292.173 346.594 162.298 0 259.195-125.867 259.195-336.703 0-221.348-94.19-338.349-272.388-338.349m-3.297 157.25c47.662 0 73.913 56.7 73.913 159.66l.01 12.102c.082 72.71.16 141.394-29.254 170.839-10.954 10.968-25.567 16.298-44.669 16.298-76.106 0-82.156-84.204-82.156-194.29 0-111.528 12.292-164.609 82.156-164.609M10337.403-1040.31h-270.299c-136.76 0-205.949-24.278-259.924-92.225 32.058-12.047 159.857-71.428 159.857-251.809 0-86.376-38.433-152.616-111.151-191.548-53.388-28.591-111.432-34.85-129.287-34.85-24.326 0-267.917 3.474-270.374 3.508a5.22 5.22 0 0 0-3.696 1.604 5.24 5.24 0 0 0-1.47 3.747c.122 5.843 12.159 585.673 1.77 712.066a5.25 5.25 0 0 0 1.553 4.17 5.23 5.23 0 0 0 4.194 1.474c1.222-.115 122.796-12.094 179.327-1.808a5.35 5.35 0 0 0 4.389-1.215 5.26 5.26 0 0 0 1.781-4.198l-10.265-212.147h31.178c10.58 28.633 86.942 217.642 256.437 217.642h415.98a5.243 5.243 0 0 0 5.242-5.243v-143.926a5.243 5.243 0 0 0-5.242-5.242m-565.15-331.749c0 22.02-7.398 39.609-21.997 52.284-33.97 29.471-97.549 25.485-114.953 23.779v-153.824c17.486-1.529 80.928-4.682 114.878 25.132 14.647 12.865 22.073 30.57 22.073 52.63"/><path d="M10160.796-1098.968c36.216 11.228 76.13 16.068 115.016 16.068 65.42 0 127.914-13.706 164.908-33.746a5.23 5.23 0 0 0 2.743-4.607v-138.664a5.238 5.238 0 0 0-7.215-4.854c-1.788.717-178.852 71.852-242.642 28.934-13.691-9.215-20.933-22.879-22.046-41.655h275.439c2.572 0 4.77-1.87 5.174-4.41.224-1.385 5.378-34.27 2.088-77.632-3.051-40.229-14.333-97.16-50.761-139.886-35.28-41.383-87.372-62.364-154.833-62.364-129.37 0-191.18 56.672-220.249 104.217-43.546 71.216-42.993 169.385 1.447 256.205 24.953 48.747 69.004 83.194 130.93 102.394m17.692-269.746c.73-33.834 9.337-66.74 57.886-66.74 12.129 0 21.432 3.816 28.448 11.666 14.265 15.951 14.559 44.023 14.06 55.074zM10805.427-1523.22c-.457-2.6-2.573-4.49-5.44-4.328-94.525 5.112-206.96-1.235-208.086-1.296-2.075-.075-4.026 1.003-4.967 2.853-33.59 65.872-172.104 611.678-177.98 634.878a5.22 5.22 0 0 0 .99 4.565c1.024 1.277 2.532 1.822 4.239 1.966 44.699-1.29 178.51 2.553 179.855 2.594h.15a5.25 5.25 0 0 0 5.202-4.574l9.869-76.52c61.442-10.216 127.3-3.022 142.794-1.064l21.124 78.28a5.23 5.23 0 0 0 2.485 3.202 5.21 5.21 0 0 0 4.033.472c47.847-13.85 202.803-6.363 204.36-6.287 1.89.177 3.699-.846 4.71-2.464a5.24 5.24 0 0 0 .135-5.31c-105.916-191.411-182.709-622.633-183.473-626.967m-72.662 423.29-88.909-1.126c7.447-26.66 34.769-125.499 46.823-183.836zM11689.255-1543.724c-185.12 0-278.983 110.51-278.983 328.458 0 233.224 95.57 346.594 292.176 346.594 162.301 0 259.195-125.867 259.195-336.696 0-221.355-94.192-338.356-272.388-338.356m41.368 499.858c-10.955 10.969-25.561 16.299-44.666 16.299-76.11 0-82.157-84.211-82.157-194.298 0-111.528 12.293-164.609 82.157-164.609 47.662 0 73.913 56.705 73.913 159.667l.006 12.1c.083 72.712.164 141.396-29.253 170.84M11405.517-1024.714h-187.12c-43.409-196.776-2.934-486.063-2.518-488.977a5.22 5.22 0 0 0-1.228-4.178 5.25 5.25 0 0 0-3.959-1.809h-187.807a5.23 5.23 0 0 0-3.816 1.646 5.27 5.27 0 0 0-1.42 3.91c20.811 347.603 10.634 621.602 10.532 624.326a5.22 5.22 0 0 0 1.631 4.013 5.26 5.26 0 0 0 4.096 1.413c91.679-8.654 368.762-5.276 371.54-5.242h.069a5.24 5.24 0 0 0 5.241-5.241v-124.619a5.243 5.243 0 0 0-5.241-5.242"/></g><g fill="#d5ae5c"><path d="M9380.821-795.097h232.675l-21.582 59.985h-145.657l-16.07 44.657h135.13l-20.619 57.313h-135.123l-19.922 55.385h149.883l-22.888 63.634h-236.893zM9747.366-795.097h95.643l18.642 86.435 79.485-86.435h94.684l-136.402 136.075 43.58 144.9h-97.559l-23.014-90.28-87.962 90.28h-96.982l149.588-146.434zM10173.528-795.097h144.325q47.148 0 62.556 22.419c10.272 14.953 10.452 36.22.523 63.828-10.205 28.36-26.705 50.53-49.512 66.508-22.8 15.97-51.71 23.952-86.717 23.952h-47.53l-37.505 104.267h-87.205zm44.116 119.79h21.274c16.74 0 29.537-2.907 38.41-8.726 8.859-5.812 14.925-13.259 18.186-22.332 3.174-8.812 2.92-16.292-.75-22.42-3.676-6.133-13.62-9.2-29.845-9.2h-24.73zM10459.519-514.123l101.065-280.974h144.706q40.249-.002 59.041 6.897c12.53 4.6 20.892 13.125 25.105 25.58 4.211 12.468 3.1 27.642-3.342 45.528-5.605 15.589-13.768 29.034-24.482 40.344-10.72 11.304-23.155 20.471-37.317 27.495-9.02 4.486-20.519 8.183-34.493 11.123 9.107 3.455 15.395 6.91 18.883 10.359 2.357 2.303 5.21 7.231 8.565 14.771q5.032 11.32 5.886 17.458l12.762 81.42h-98.105l-15.53-85.867c-1.88-11.115-4.519-18.334-7.927-21.655-4.694-4.346-11.003-6.523-18.924-6.523h-7.667l-41.021 114.044zm147.317-167.131h36.614c3.951 0 12.08-1.28 24.375-3.837 6.167-1.145 11.92-4.085 17.263-8.812 5.337-4.728 9.113-10.159 11.316-16.292 3.262-9.074 2.893-16.031-1.111-20.892-3.998-4.849-13.929-7.286-29.772-7.286h-38.141zM10966.625-795.097h232.674l-21.582 59.985h-145.656l-16.072 44.657h135.131l-20.618 57.313h-135.124l-19.922 55.385h149.883l-22.888 63.634h-236.892zM11269.563-607.08l84.466-5.176c-3.04 13.412-3.074 23.644-.1 30.669 4.847 11.37 15.582 17.055 32.188 17.055q18.604 0 31.793-8.718 13.2-8.721 17.337-20.223c2.62-7.286 1.774-13.8-2.55-19.553-4.32-5.745-17.19-11.176-38.598-16.286-35.008-8.557-58.07-19.94-69.192-34.117q-16.886-21.271-5.022-54.246c5.19-14.43 14.282-28.077 27.273-40.914 12.99-12.843 29.202-22.934 48.655-30.287q29.16-11.017 73.056-11.015 53.856 0 74.917 20.028c14.042 13.352 17.618 34.593 10.715 63.728l-83.564 4.788q3.566-18.965-3.769-27.595c-4.901-5.752-13.48-8.632-25.747-8.632-10.09 0-18.468 2.143-25.118 6.422-6.649 4.286-11.081 9.488-13.285 15.622-1.607 4.473-.95 8.498 1.982 12.08 2.752 3.703 11.23 7.152 25.406 10.346 35.014 8.176 59.222 16.453 72.627 24.816 13.406 8.377 21.623 18.756 24.642 31.151 3.014 12.395 1.768 26.256-3.75 41.59-6.482 18.013-17.437 34.627-32.878 49.827q-23.15 22.82-54.226 34.6c-20.718 7.861-44.677 11.785-71.891 11.785q-71.686 0-89.355-27.602c-11.784-18.394-13.794-41.778-6.013-70.143M11655.09-607.08l84.468-5.176c-3.04 13.412-3.074 23.644-.1 30.669 4.847 11.37 15.581 17.055 32.188 17.055q18.604 0 31.794-8.718 13.2-8.721 17.336-20.223c2.619-7.286 1.775-13.8-2.551-19.553-4.319-5.745-17.189-11.176-38.597-16.286-35.008-8.557-58.07-19.94-69.192-34.117q-16.885-21.271-5.023-54.246c5.19-14.43 14.283-28.077 27.274-40.914 12.992-12.843 29.203-22.934 48.655-30.287q29.162-11.017 73.056-11.015 53.856 0 74.917 20.028c14.043 13.352 17.619 34.593 10.714 63.728l-83.561 4.788c2.377-12.642 1.117-21.843-3.77-27.595-4.902-5.752-13.48-8.632-25.747-8.632-10.092 0-18.469 2.143-25.118 6.422-6.65 4.286-11.082 9.488-13.285 15.622-1.608 4.473-.951 8.498 1.982 12.08 2.751 3.703 11.23 7.152 25.405 10.346 35.015 8.176 59.221 16.453 72.628 24.816 13.405 8.377 21.622 18.756 24.642 31.151 3.013 12.395 1.768 26.256-3.75 41.59-6.482 18.013-17.437 34.627-32.879 49.827q-23.15 22.82-54.226 34.6c-20.717 7.861-44.677 11.785-71.891 11.785q-71.686 0-89.354-27.602c-11.786-18.394-13.795-41.778-6.014-70.143"/></g><path fill="#d5ae5c" d="M9180.227-708.225H7366.27l35.014-93.435H9215.24zM9109.962-520.727H7296.006l35.014-93.434h1813.956z"/></svg>