<?xml version="1.0" encoding="UTF-8"?>
<!-- Generated by Pixelmator Pro 4.2 -->
<svg width="4688" height="1749" viewBox="0 0 4688 1749" xmlns="http://www.w3.org/2000/svg">
    <g id="Layer-1">
        <g id="g19">
            <path id="path194" fill="#ea5324" stroke="none" d="M 4111.877441 303.765625 C 4111.631836 302.670044 4217.432129 336.87146 4272.000488 396.658691 C 4328.996582 455.859253 4375.817383 615.41748 4374.318359 614.486206 C 4374.023926 611.938477 4238.364258 549.743164 4180.040527 480.536133 C 4121.986816 408.450073 4096.378418 328.780151 4096.554688 328.55542 C 4096.287109 328.253784 4167.415527 352.761597 4228.626953 410.770508 C 4290.094727 468.518555 4324.419922 542.58728 4324.30127 542.281616 C 4324.937012 542.605591 4281.055664 442.093506 4233.571289 398.386108 C 4187.604492 354.430298 4112.05957 303.412109 4111.877441 303.765625 Z"/>
            <path id="path195" fill="#ea5324" stroke="none" d="M 4267.625977 334.949097 C 4266.991211 334.198364 4362.658203 322.616699 4440.467285 364.816895 C 4520.192383 403.056396 4660.799316 574.307983 4658.660156 575.393555 C 4657.584961 572.621338 4513.237305 543.503906 4426.769531 491.776978 C 4339.45752 436.070923 4272.672852 367.119507 4272.325195 366.59021 C 4272.199219 366.804199 4330.730469 379.713257 4409.745117 421.230469 C 4497.962891 466.502563 4590.704102 525.701172 4590.689453 526.061523 C 4590.681152 526.591797 4520.045898 468.928589 4414.390137 411.680176 C 4355.151367 378.542847 4267.76123 334.456909 4267.625977 334.949097 Z"/>
            <path id="path196" fill="#ea5324" stroke="none" d="M 3861.423828 257.591309 C 3861.070801 256.578735 3967.137207 269.615967 4027.29541 319.999268 C 4089.841064 369.360229 4155.883789 526.227051 4154.287109 525.613281 C 4153.760742 523.247192 4016.86499 489.151733 3951.412842 428.746704 C 3885.963867 365.545776 3850.096436 287.171875 3850.250977 286.922852 C 3849.955078 286.680664 3921.570801 297.276245 3987.964844 344.608765 C 4054.593018 391.640381 4097.237793 461.567017 4097.089844 461.295532 C 4097.758789 461.489624 4042.323975 365.851074 3990.947021 330.473145 C 3941.067627 294.569214 3861.574219 257.214355 3861.423828 257.591309 Z"/>
            <path id="path197" fill="#ea5324" stroke="none" d="M 3613.954834 260.775391 C 3613.500977 259.845825 3717.759766 252.239136 3782.617676 292.519409 C 3849.754883 331.339966 3934.836426 482.05835 3933.175293 481.769897 C 3932.427002 479.592285 3796.887207 472.67627 3725.165771 422.241821 C 3653.187256 369.092651 3607.223389 294.010864 3607.357422 293.733398 C 3607.040039 293.549927 3677.785889 290.464111 3748.329102 326.492676 C 3819.071533 362.183228 3869.684082 426.583984 3869.508301 426.348633 C 3870.194824 426.409912 3803.643799 337.623413 3749.185303 311.039307 C 3696.161865 283.650024 3614.064453 260.375977 3613.954834 260.775391 Z"/>
            <path id="path198" fill="#ea5324" stroke="none" d="M 3367.256592 314.278564 C 3366.707031 313.436035 3466.949707 285.096191 3535.579346 314.221924 C 3606.325195 341.423218 3710.348389 482.140869 3708.667969 482.188232 C 3707.705811 480.199219 3576.270752 500.337524 3499.171631 461.422363 C 3421.540527 419.879395 3365.622559 350.300537 3365.723145 349.998779 C 3365.384521 349.876831 3433.793701 332.93042 3507.421387 356.642578 C 3581.21875 379.963013 3639.439209 437.213989 3639.24292 437.012939 C 3639.928711 436.938477 3562.665527 357.309448 3505.962646 340.292358 C 3450.609619 322.171387 3367.320557 313.852783 3367.256592 314.278564 Z"/>
            <path id="path199" fill="#ea5324" stroke="none" d="M 3140.857422 413.584351 C 3140.224365 412.827637 3234.454102 364.882202 3305.605225 382.445679 C 3378.653564 397.628662 3499.957764 524.999268 3498.293701 525.382568 C 3497.142578 523.58313 3372.306885 569.046631 3291.220703 542.5448 C 3209.333252 513.501099 3144.410645 451.358643 3144.479004 451.029541 C 3144.13208 450.970947 3208.851807 420.802002 3284.202881 431.885742 C 3359.679932 442.538696 3424.541748 491.387329 3424.323975 491.221313 C 3424.999268 491.006348 3338.317871 422.35083 3280.426025 415.11731 C 3223.752197 406.495728 3140.873535 413.129272 3140.857422 413.584351 Z"/>
            <path id="path200" fill="#ea5324" stroke="none" d="M 2932.229248 558.214722 C 2931.519287 557.545898 3017.661865 490.506226 3090.088623 495.763672 C 3164.12793 498.17395 3301.189453 608.563232 3299.578369 609.2854 C 3298.243164 607.676392 3182.608887 677.550171 3098.912354 664.703369 C 3014.15332 649.396973 2941.120117 596.784302 2941.1521 596.42688 C 2940.802734 596.429932 3000.416748 553.264404 3076.130371 551.047241 C 3151.918945 548.355347 3222.486572 587.342896 3222.248047 587.214966 C 3222.89502 586.862305 3128.031738 531.259033 3070.009521 534.312744 C 3013.043945 535.683472 2932.202393 557.735229 2932.229248 558.214722 Z"/>
            <path id="path201" fill="#ea5324" stroke="none" d="M 4113.341797 286.135376 C 4113.637695 285.463379 4218.186523 315.86438 4287.722168 312.265259 C 4355.317871 303.989014 4481.413574 239.14917 4482.722168 241.146851 C 4483.784668 238.735352 4308.442871 141.471924 4222.876953 166.74292 C 4137.868164 188.291016 4102.305176 254.469727 4102.182129 253.905273 C 4102.418945 253.984375 4175.071289 268.529785 4251.95166 265.726318 C 4328.629883 262.168945 4396.686035 241.305664 4396.814941 241.29187 C 4396.259766 240.475708 4309.516113 276.69812 4252.76416 280.377441 C 4194.724609 281.517944 4113.174805 285.613892 4113.341797 286.135376 Z"/>
            <path id="path202" fill="#ea5324" stroke="none" d="M 3860.337646 238.743042 C 3860.567627 238.030029 3964.888672 247.427246 4030.525879 227.624268 C 4093.771484 203.715454 4204.495117 105.050171 4205.99707 106.706909 C 4206.833496 104.240845 4026.771729 43.970093 3948.326904 89.212524 C 3870.069824 130.818115 3845.27002 207.778809 3845.091064 207.260254 C 3845.332031 207.290527 3917.030762 207.10083 3989.946533 186.783936 C 4062.589111 165.7854 4124.337402 127.599731 4124.467285 127.560669 C 4123.833984 126.890015 4046.386719 185.452393 3992.768066 202.012573 C 3937.611816 216.383667 3860.121094 238.269409 3860.337646 238.743042 Z"/>
            <path id="path203" fill="#ea5324" stroke="none" d="M 3610.208496 241.238403 C 3610.371094 240.48938 3712.412354 229.471313 3772.604736 194.822266 C 3830.010254 156.640869 3922.091553 28.547607 3923.752197 29.852783 C 3924.342773 27.324219 3743.173828 3.292969 3673.779541 66.584473 C 3604.224609 126.323242 3591.196289 211.750977 3590.965088 211.278442 C 3591.215332 211.251953 3660.509277 196.859985 3727.775391 160.394409 C 3794.69751 123.313599 3848.478516 69.737793 3848.599609 69.672363 C 3847.900635 69.147095 3781.915527 147.373169 3732.657715 175.797119 C 3681.656494 202.380981 3609.945801 240.808838 3610.208496 241.238403 Z"/>
            <path id="path204" fill="#ea5324" stroke="none" d="M 3360.716797 294.589233 C 3360.792725 293.802002 3458.365479 262.374146 3511.445313 213.865967 C 3561.391113 162.428955 3631.316406 8.666626 3633.106934 9.601685 C 3633.430664 7.012695 3454.873047 19.520752 3396.658447 99.371338 C 3337.913818 175.753296 3337.82959 267.451538 3337.549561 267.025879 C 3337.790771 266.944702 3403.135498 238.470947 3462.929443 186.803467 C 3522.317139 134.592163 3566.335693 67.213623 3566.451416 67.115967 C 3565.704834 66.741089 3513.485596 162.39856 3469.939697 201.95752 C 3424.463867 240.049438 3360.412598 294.209351 3360.716797 294.589233 Z"/>
            <path id="path205" fill="#ea5324" stroke="none" d="M 3131.61377 394.297974 C 3131.608643 393.469849 3222.767578 342.84082 3267.609131 282.293091 C 3309.032959 219.41333 3355.059814 45.303833 3356.927734 45.884277 C 3356.986084 43.228027 3184.600342 90.443115 3138.858398 184.356323 C 3092.226318 274.885132 3105.239258 370.256226 3104.919922 369.876343 C 3105.148682 369.742554 3165.226318 328.139404 3216.290039 263.132813 C 3266.896973 197.65564 3300.125977 118.879883 3300.22876 118.759766 C 3299.452637 118.5354 3262.25 228.314209 3225.324463 277.624268 C 3186.333496 325.827393 3131.270752 393.968018 3131.61377 394.297974 Z"/>
            <path id="path206" fill="#ea5324" stroke="none" d="M 2920.351074 539.881348 C 2920.248535 539.012207 3002.974365 469.779297 3038.371826 398.599609 C 3070.127686 325.688599 3090.328857 135.811401 3092.243408 136.026733 C 3092.016846 133.307007 2929.413086 214.469482 2897.552734 320.445801 C 2864.450684 423.130615 2890.859863 519.75061 2890.501465 519.418701 C 2890.711182 519.226196 2944.136719 465.028442 2985.118408 388.096191 C 3025.598877 310.754883 3046.935547 222.606812 3047.026123 222.454468 C 3046.230713 222.382446 3025.406494 343.499023 2996.087646 401.501099 C 2964.606934 458.766479 2919.972412 539.601196 2920.351074 539.881348 Z"/>
            <g id="g20">
                <path id="path207" fill="#ea5324" stroke="none" d="M 228.050674 970.039124 C 209.54689 958.421692 194.934357 949.238586 191.175491 945.48584 C 185.659302 939.972839 183.885696 933.141357 186.180557 926.24707 C 190.885666 912.123596 210.399918 901.306152 238.379272 897.297729 C 311.168701 886.915405 416.565369 961.485107 417.619995 962.242615 C 419.213837 963.381775 421.319611 963.530579 423.066956 962.636475 C 424.813812 961.734619 425.911896 959.939331 425.911316 957.973511 L 425.871796 827.110229 C 425.871338 825.650269 425.263611 824.257874 424.191681 823.268005 C 331.88681 737.808533 128.044388 753.868164 43.278316 828.202332 C 15.854352 852.256531 1.195364 881.289246 -0.299644 914.494812 C -2.682823 967.501404 29.507046 1016.115662 48.900509 1036.477051 C 76.033142 1064.97168 109.473389 1083.874756 141.81076 1102.143311 C 179.711426 1123.563477 215.513641 1143.796875 238.300079 1177.432617 C 248.778381 1192.909912 250.782257 1207.644531 243.792725 1217.871338 C 233.494537 1232.937866 205.19426 1236.891724 168.058426 1228.445923 C 85.817062 1209.735352 23.399038 1154.495483 22.777836 1153.936035 C 21.241364 1152.558594 19.033312 1152.210693 17.143003 1153.057861 C 15.252693 1153.898315 14.038157 1155.775635 14.038781 1157.843018 L 14.084835 1310.349854 C 14.08528 1311.824463 14.707241 1313.229492 15.796013 1314.226318 C 43.446426 1339.417114 134.855804 1375.017456 235.704712 1374.987061 C 257.423065 1374.980469 279.584412 1373.322388 301.632751 1369.548218 C 355.74527 1360.297485 397.098907 1334.444092 421.218231 1294.794312 C 445.474243 1254.9198 450.345673 1203.6604 434.577545 1154.153564 C 412.916992 1086.145508 292.657959 1010.617249 228.050674 970.039124 Z"/>
                <path id="path208" fill="#ea5324" stroke="none" d="M 850.948547 728.928162 C 850.486938 726.315002 848.131348 724.356689 845.500305 724.602661 C 751.011292 729.757141 638.547546 723.436646 637.417847 723.368652 C 635.366516 723.247192 633.394409 724.373779 632.44989 726.223633 C 598.888794 792.105835 460.535339 1337.953369 454.662628 1361.154297 C 454.260284 1362.752075 454.625977 1364.4375 455.653809 1365.720459 C 456.681122 1367.003296 458.27533 1367.658081 459.896362 1367.684937 C 504.574677 1366.374512 638.401489 1370.183838 639.752991 1370.224365 C 639.803833 1370.224365 639.855225 1370.224365 639.906616 1370.224365 C 642.530579 1370.223511 644.761841 1368.270752 645.099304 1365.649536 L 654.949097 1289.133789 C 716.38147 1278.897461 782.245117 1286.072021 797.735962 1288.019409 L 818.883911 1366.293335 C 819.249451 1367.651611 820.147522 1368.804688 821.376099 1369.493774 C 822.598022 1370.189697 824.045044 1370.346436 825.403564 1369.963257 C 873.259033 1356.093262 1028.204102 1363.540649 1029.76416 1363.615479 C 1031.586548 1363.744751 1033.463135 1362.761719 1034.469238 1361.150146 C 1035.47583 1359.539429 1035.529663 1357.505249 1034.607422 1355.840576 C 928.633301 1164.460449 851.710693 733.262878 850.948547 728.928162 Z M 778.412903 1152.241089 L 689.498657 1151.141968 C 696.94043 1124.479492 724.232483 1025.62561 736.26825 967.291931 L 778.412903 1152.241089 Z"/>
                <path id="path209" fill="#ea5324" stroke="none" d="M 1567.665283 896.330872 C 1567.630737 782.141418 1434.196533 732.779358 1366.137207 732.799927 L 1065.571167 732.890686 C 1063.88147 732.891235 1062.29834 733.704163 1061.312622 735.076538 C 1060.330322 736.448914 1060.067993 738.216553 1060.607544 739.81311 C 1061.188477 741.53363 1118.000977 916.553589 1066.747559 1362.61499 C 1066.573608 1364.137451 1067.07251 1365.658813 1068.116943 1366.784424 C 1069.158447 1367.897461 1070.595093 1368.531738 1072.171875 1368.449219 C 1073.625854 1368.394165 1219.335938 1362.459473 1324.729126 1369.962891 C 1335.424683 1370.724243 1345.789063 1371.103027 1355.808594 1371.099976 C 1465.816772 1371.066772 1534.794067 1325.186523 1556.076416 1237.275757 C 1581.469482 1132.38916 1555.970581 1078.73584 1508.639648 1032.74707 C 1525.543213 1022.264526 1567.692627 987.039856 1567.665283 896.330872 Z M 1254.412964 1118.694092 C 1277.485474 1115.833496 1335.329346 1111.86499 1365.600952 1138.098877 C 1377.882935 1148.742676 1384.112427 1163.401855 1384.118042 1181.67334 C 1384.121338 1192.846191 1380.137939 1201.658936 1371.939331 1208.623413 C 1342.999878 1233.211182 1272.710083 1225.764648 1254.44458 1223.347412 L 1254.412964 1118.694092 Z M 1357.066162 969.746033 C 1328.178589 995.88269 1271.097656 994.73291 1254.375244 993.795593 L 1254.34021 877.743835 C 1270.450684 875.145264 1328.710083 867.749695 1357.623047 891.390381 C 1368.733521 900.478821 1374.140015 912.899109 1374.144897 929.368835 C 1374.149902 945.900085 1368.403442 959.491638 1357.066162 969.746033 Z"/>
                <path id="path210" fill="#ea5324" stroke="none" d="M 1865.293823 705.484131 C 1680.175293 705.540039 1586.346191 816.078186 1586.411987 1034.026367 C 1586.482422 1267.25 1682.089111 1380.591309 1878.69104 1380.53186 C 2040.988647 1380.48291 2137.847412 1254.586426 2137.783691 1043.750488 C 2137.716797 822.402893 2043.491089 705.430298 1865.293823 705.484131 Z M 1862.044434 862.735168 C 1909.706299 862.720764 1935.974121 919.412048 1936.005249 1022.372986 L 1936.019165 1034.474609 C 1936.122925 1107.184448 1936.222046 1175.869019 1906.817017 1205.322266 C 1895.865479 1216.294189 1881.253906 1221.628784 1862.152832 1221.634521 C 1786.046631 1221.657471 1779.970459 1137.455322 1779.937256 1027.368408 C 1779.903564 915.841003 1792.180054 862.756226 1862.044434 862.735168 Z"/>
                <path id="path211" fill="#ea5324" stroke="none" d="M 3052.436279 1209.857178 L 2782.137451 1209.938721 C 2645.376953 1209.97998 2576.180664 1185.722656 2522.184814 1117.791748 C 2554.240234 1105.735107 2682.020752 1046.315674 2681.966309 865.934814 C 2681.940186 779.558838 2643.486328 713.3302 2570.756836 674.420532 C 2517.360352 645.844849 2459.314941 639.603638 2441.459717 639.609009 C 2417.134033 639.616333 2173.543701 643.164551 2171.086426 643.198486 C 2169.690918 643.21936 2168.360107 643.793945 2167.391357 644.804077 C 2166.422363 645.807251 2165.893555 647.159058 2165.921631 648.551514 C 2166.045898 654.394287 2178.257568 1234.220703 2167.907715 1360.616455 C 2167.781982 1362.16626 2168.348633 1363.695435 2169.461914 1364.786865 C 2170.444824 1365.755371 2171.765869 1366.287109 2173.134033 1366.286743 C 2173.308594 1366.286621 2173.482422 1366.280762 2173.656494 1366.259277 C 2174.878174 1366.143555 2296.448486 1354.128418 2352.98291 1364.396484 C 2354.511719 1364.669434 2356.163086 1364.225586 2357.371338 1363.180298 C 2358.571777 1362.122314 2359.227051 1360.579102 2359.151367 1358.982544 L 2348.821533 1146.838135 L 2380.000244 1146.828735 C 2390.588379 1175.458374 2467.007568 1364.444092 2636.50293 1364.392822 L 3052.482666 1364.267334 C 3055.376709 1364.266357 3057.723877 1361.917969 3057.7229 1359.023438 L 3057.679443 1215.09668 C 3057.678467 1212.203125 3055.330322 1209.856201 3052.436279 1209.857178 Z M 2487.187012 878.278809 C 2487.193604 900.29834 2479.799805 917.889404 2465.204834 930.568604 C 2431.243408 960.050537 2367.66333 956.083435 2350.258301 954.382629 L 2350.211914 800.558411 C 2367.697998 799.024841 2431.139404 795.852356 2465.097656 825.655579 C 2479.749023 838.516357 2487.18042 856.219238 2487.187012 878.278809 Z"/>
                <path id="path212" fill="#ea5324" stroke="none" d="M 2875.811523 1151.252197 C 2912.030762 1162.468872 2951.947266 1167.296631 2990.831543 1167.284912 C 3056.252197 1167.265137 3118.741943 1153.540283 3155.729248 1133.48999 C 3157.421631 1132.574463 3158.471924 1130.806519 3158.471191 1128.881714 L 3158.429443 990.217712 C 3158.428955 988.469666 3157.561768 986.845886 3156.11499 985.870728 C 3154.660889 984.894592 3152.831055 984.703735 3151.213623 985.366333 C 3149.425781 986.083679 2972.383057 1057.271973 2908.580322 1014.37323 C 2894.885742 1005.162537 2887.639648 991.50061 2886.52124 972.724609 L 3161.960205 972.641418 C 3164.532715 972.640625 3166.730713 970.769897 3167.132813 968.230713 C 3167.356934 966.844849 3172.500488 933.958557 3169.197754 890.597229 C 3166.134766 850.369629 3154.834961 793.442383 3118.394531 750.726807 C 3083.101563 709.354736 3031.003662 688.388916 2963.541992 688.409302 C 2834.173584 688.448364 2772.379883 745.138916 2743.325195 792.692627 C 2699.800781 863.922607 2700.383301 962.09137 2744.849121 1048.897217 C 2769.817627 1097.636719 2813.878906 1132.070801 2875.811523 1151.252197 Z M 2893.421631 881.500854 C 2894.141846 847.666626 2902.738525 814.758789 2951.287842 814.74408 C 2963.416504 814.740417 2972.720703 818.55304 2979.739258 826.400574 C 2994.009033 842.347412 2994.311523 870.419556 2993.816406 881.47052 L 2893.421631 881.500854 Z"/>
                <path id="path213" fill="#ea5324" stroke="none" d="M 3520.313965 726.805664 C 3519.856445 724.2052 3517.73999 722.315186 3514.873535 722.479126 C 3420.349609 727.620056 3307.912842 721.306274 3306.786865 721.246094 C 3304.71167 721.171509 3302.760742 722.250244 3301.81958 724.100098 C 3268.250732 789.982361 3129.901123 1335.829834 3124.031494 1359.031738 C 3123.623291 1360.628662 3123.991943 1362.314087 3125.022949 1363.596924 C 3126.047363 1364.873047 3127.55542 1365.418457 3129.262207 1365.561523 C 3173.961182 1364.257935 3307.774414 1368.060303 3309.118408 1368.100952 C 3309.166016 1368.10083 3309.221191 1368.10083 3309.268799 1368.10083 C 3311.896484 1368.100098 3314.12793 1366.147217 3314.468994 1363.526123 L 3324.314941 1287.00354 C 3385.753906 1276.768188 3451.614014 1283.94165 3467.108643 1285.895996 L 3488.256348 1364.169922 C 3488.618896 1365.528076 3489.520752 1366.681152 3490.742432 1367.370239 C 3491.970459 1368.072998 3493.431152 1368.229858 3494.776123 1367.840698 C 3542.618408 1353.976685 3697.57666 1361.417236 3699.133057 1361.491943 C 3701.02417 1361.669067 3702.83252 1360.645142 3703.842285 1359.026611 C 3704.844727 1357.416016 3704.89917 1355.381836 3703.977051 1353.717041 C 3598.00293 1162.337891 3521.080078 731.139404 3520.313965 726.805664 Z M 3447.779541 1150.117676 L 3358.871094 1149.018555 C 3366.309326 1122.356079 3393.602051 1023.508972 3405.637695 965.168396 L 3447.779541 1150.117676 Z"/>
                <path id="path214" fill="#ea5324" stroke="none" d="M 4404.135742 706.034912 C 4219.01709 706.090698 4125.187012 816.628845 4125.25293 1034.577148 C 4125.323242 1267.800781 4220.927246 1381.141968 4417.532715 1381.082642 C 4579.833496 1381.033569 4676.688965 1255.137207 4676.625488 1044.308105 C 4676.558594 822.953552 4582.33252 705.981079 4404.135742 706.034912 Z M 4445.654785 1205.879761 C 4434.703613 1216.851807 4420.098145 1222.186279 4400.994141 1222.192139 C 4324.884277 1222.215088 4318.811523 1138.005981 4318.77832 1027.919067 C 4318.744629 916.391724 4331.020996 863.306946 4400.885742 863.285828 C 4448.547363 863.271423 4474.81543 919.968628 4474.84668 1022.930481 L 4474.856445 1035.031006 C 4474.960938 1107.741943 4475.062988 1176.426514 4445.654785 1205.879761 Z"/>
                <path id="path215" fill="#ea5324" stroke="none" d="M 4120.554199 1225.130371 L 3933.435547 1225.186768 C 3889.966797 1028.423584 3930.353516 739.124207 3930.769287 736.210022 C 3930.987061 734.701172 3930.536377 733.178833 3929.540039 732.032654 C 3928.54248 730.886475 3927.101807 730.224792 3925.580322 730.225281 L 3737.772949 730.281982 C 3736.325439 730.28241 3734.947266 730.876587 3733.957764 731.92865 C 3732.968506 732.979736 3732.457275 734.39978 3732.538818 735.839233 C 3753.454834 1083.436523 3743.361084 1357.438477 3743.259277 1360.162231 C 3743.198486 1361.67688 3743.792969 1363.137573 3744.89209 1364.174438 C 3745.86792 1365.095947 3747.164795 1365.6073 3748.496338 1365.606934 C 3748.660156 1365.606812 3748.823975 1365.599976 3748.987793 1365.586182 C 3840.664307 1356.904297 4117.748047 1360.198486 4120.526367 1360.231812 C 4120.552734 1360.231812 4120.574219 1360.231812 4120.594727 1360.231812 C 4121.973145 1360.231445 4123.297363 1359.685059 4124.279785 1358.716064 C 4125.276367 1357.732422 4125.835449 1356.387451 4125.834961 1354.989014 L 4125.797363 1230.37085 C 4125.796387 1227.476318 4123.448242 1225.129395 4120.554199 1225.130371 Z"/>
            </g>
        </g>
    </g>
</svg>
